<svg xmlns="http://www.w3.org/2000/svg" viewBox="0 0 337 542"><defs/><path fill="#ccc" fill-rule="evenodd" d="M64 271c26 27 43 63 40 116-6 3-13 4-22 3 3-34-5-73-23-89a27 27 0 00-8-5c-31-10-28 36-19 53l-15 19C2 346-2 306 1 271c-3-35 1-75 16-98 4 7 9 14 15 20-9 17-12 63 19 52a27 27 0 008-4c18-16 26-55 23-90 9 0 16 1 22 4 3 53-14 89-40 116zm272 0c3 35-1 75-15 97l-16-19c9-17 12-63-19-53a27 27 0 00-8 5c-18 16-26 55-23 89-9 1-16 0-22-3-3-53 14-89 40-116-26-27-43-63-40-116 6-3 13-4 22-4-3 35 5 74 23 90a27 27 0 008 4c31 11 28-35 19-52l16-20c14 23 18 63 15 98zM1 103c4 54 27 92 69 107 2-7 5-13 5-22l-11-4a86 86 0 01-38-78c1-4 3-10 7-13 19-14 36 13 41 27 7-2 18 0 23-1C81 75 49 46 9 25a213 213 0 00-8 78m0 336a213 213 0 008 78c40-21 72-50 88-95-5-1-16 2-23 0-5 13-22 41-41 27-4-3-6-9-7-13-5-32 18-68 38-78l11-4c0-9-3-15-5-22-42 15-65 53-69 107m336-336a213 213 0 00-9-78c-40 21-72 50-88 94 5 1 17-1 23 1 5-14 22-41 41-27 4 3 7 9 7 13 5 32-18 67-38 78l-11 4c0 9 3 15 5 22 42-15 65-53 70-107m0 336c-5-54-28-92-70-107-2 7-5 13-5 22l11 4c20 10 43 46 38 78 0 4-3 10-7 13-19 14-36-14-41-27-6 2-18-1-23 0 16 45 48 74 88 95a213 213 0 009-78M66 271a139 139 0 0054 31v-22a60 60 0 01-17-9 60 60 0 0117-9v-23a139 139 0 00-54 32zm168 0a60 60 0 01-17 9v22a139 139 0 0054-31 139 139 0 00-54-32v23a60 60 0 0117 9zM169 83c-30 0-62-10-74-26a25 25 0 01-5-8c-7-30 37-25 53-17 6-6 13-11 20-15C131-3 64-5 25 10c29 50 67 94 144 94 76 0 114-44 143-94-39-15-106-13-138 7 7 4 14 9 20 15 16-8 61-13 53 17a25 25 0 01-5 8c-12 16-44 26-73 26zm0 376c29 0 61 9 73 26a25 25 0 015 8c8 30-37 25-53 17-6 6-13 10-20 15 32 20 99 22 138 7-29-50-67-94-143-94-77 0-115 44-144 94 39 15 106 13 138-7-7-5-14-9-20-15-16 8-60 13-53-17a25 25 0 015-8c12-17 44-26 74-26zM80 124c-18 2-29 12-41 21 2 8 6 14 11 19 16-26 66-19 83 1 7-3 10-9 16-13-15-13-40-30-69-28m0 294c29 2 54-15 69-28-6-4-9-10-16-13-17 19-67 27-83 1-5 5-9 11-11 19 12 9 23 19 41 21m177-294c-29-2-54 15-69 28 6 4 9 10 16 13 18-20 67-27 83-1 5-5 9-11 11-19-12-9-22-19-41-21m0 294c19-2 29-12 41-21-2-8-6-14-11-19-16 26-65 18-83-1-7 3-10 9-16 13 15 13 40 30 69 28m-93-247l-7-7c-1-1-4-7-6-7l-10 8c-9 8-21 17-32 20a171 171 0 01-4 24c25-8 43-21 59-38m0 199c-16-16-34-29-59-37a171 171 0 014 23c11 4 23 13 32 21l10 8c2 0 5-6 6-7l7-8m9-199c16 17 34 30 59 38a171 171 0 01-4-24c-11-3-23-12-32-20l-10-8c-2 0-5 6-6 7l-7 7m0 199l7 8c1 1 4 7 6 7l10-8c9-8 21-17 32-21a171 171 0 014-23c-25 8-43 21-59 37m-46-99a56 56 0 00-3 24c2 25 16 46 28 59 3-5 10-9 13-15-15-14-23-47-14-68-9-22-1-55 14-68-3-7-10-10-13-16-12 14-26 35-28 60a56 56 0 003 24zm59 0c9 21 1 54-14 68 3 6 10 10 13 15 13-13 26-34 28-59a56 56 0 00-3-24 56 56 0 003-24c-2-25-15-46-28-60-3 6-10 9-13 16 15 13 23 46 14 68zM169 19a98 98 0 00-43 50c6 4 14 5 22 6 3-11 10-21 21-29 10 8 17 18 20 29 8-1 16-2 22-6-8-21-23-38-42-50zm0 504c19-12 34-29 42-50-6-4-14-6-22-6-3 11-10 21-20 29-11-8-18-18-21-29-8 0-16 2-22 6 8 21 23 38 43 50zm0-384a146 146 0 01-18-30l-24-4c8 25 21 43 38 59l4-3 3 3c17-16 30-34 38-59l-24 4a146 146 0 01-17 30zm0 263a146 146 0 0117 30l24 4c-8-24-21-42-38-58l-3 3-4-3c-17 16-30 34-38 58l24-4a146 146 0 0118-30zm0-170h-14c-3 6-4 13-4 22h2a141 141 0 0131 0h2c0-9-1-16-4-22h-13zm0 78h13c3-6 4-13 4-22h-2a141 141 0 01-31 0h-2c0 9 1 16 4 22h14zm0-135l-12 10a152 152 0 0112 14 152 152 0 0111-14l-11-10zm0 192l11-11a152 152 0 01-11-13 152 152 0 01-12 13l12 11z"/></svg>