<svg xmlns="http://www.w3.org/2000/svg" viewBox="0 0 502.771 50.4287"><title>logo</title><g style="isolation:isolate"><path d="M54.208,33.41a22.9694,22.9694,0,0,1-4.29,13.9257,24.6,24.6,0,0,1-8.9761,7.3262,28.3323,28.3323,0,0,1-7.59,2.64l-2.0459.2646-2.376.0654q-.7274,0-1.5181-.0654a4.9065,4.9065,0,0,0-.9243-.0664q-.7917-.0658-2.31-.0664L18.436,57.17H5.17l1.3863-.5283q.33-.13.726-.2637.1979-.0643.5938-.1982a.5186.5186,0,0,1,.1982-.0654,10.36,10.36,0,0,0,1.584-.5948A5.9647,5.9647,0,0,0,12.1,54.002a6.4921,6.4921,0,0,0,.792-1.3858A6.585,6.585,0,0,0,13.09,50.9V14.8643a.921.921,0,0,1-.0659-.3965.9279.9279,0,0,0-.0659-.3955.9135.9135,0,0,1-.0659-.3965,1.0683,1.0683,0,0,1-.0659-.33,4.1707,4.1707,0,0,0-.4619-.7256A6.6062,6.6062,0,0,0,9.856,11.3l-3.3-1.0557L5.2358,9.65H16.5879L21.01,9.584l5.8735-.1983,3.96.1319A12.7122,12.7122,0,0,1,32.56,9.584h.33a4.0993,4.0993,0,0,0,.66.1318q.9236.1334,1.188.1983a23.4168,23.4168,0,0,1,7.59,2.64,23.0163,23.0163,0,0,1,7.6558,6.6006,21.2384,21.2384,0,0,1,4.0923,11.22ZM44.77,21.0684a19.2882,19.2882,0,0,0-11.748-7.8545l-2.772-.33-4.2241-.1318q-1.9146,0-2.376.0664-.4621,0-1.65.0654l-.396.0664a4.7541,4.7541,0,0,0-2.376.5273,1.7786,1.7786,0,0,0-.726.792L18.37,15.6563V50.4375a4.1836,4.1836,0,0,0,.0659,1.0566,1.9537,1.9537,0,0,0,.2642.99,2.08,2.08,0,0,0,.99,1.0556,7.7483,7.7483,0,0,0,2.64.462,29.7531,29.7531,0,0,0,4.4878.2636,43.5589,43.5589,0,0,0,5.1479-.33,13.6538,13.6538,0,0,0,4.0264-1.122q4.3557-2.1108,5.2139-2.64a17.1588,17.1588,0,0,0,5.28-5.4121,19.3215,19.3215,0,0,0,2.4424-10.164A22.637,22.637,0,0,0,44.77,21.0684Z" transform="translate(-3.812 -8.1455)" style="fill:#fff"/></g><g style="isolation:isolate"><path d="M54.208,33.41a22.9694,22.9694,0,0,1-4.29,13.9257,24.6,24.6,0,0,1-8.9761,7.3262,28.3323,28.3323,0,0,1-7.59,2.64l-2.0459.2646-2.376.0654q-.7274,0-1.5181-.0654a4.9065,4.9065,0,0,0-.9243-.0664q-.7917-.0658-2.31-.0664L18.436,57.17H5.17l1.3863-.5283q.33-.13.726-.2637.1979-.0643.5938-.1982a.5186.5186,0,0,1,.1982-.0654,10.36,10.36,0,0,0,1.584-.5948A5.9647,5.9647,0,0,0,12.1,54.002a6.4921,6.4921,0,0,0,.792-1.3858A6.585,6.585,0,0,0,13.09,50.9V14.8643a.921.921,0,0,1-.0659-.3965.9279.9279,0,0,0-.0659-.3955.9135.9135,0,0,1-.0659-.3965,1.0683,1.0683,0,0,1-.0659-.33,4.1707,4.1707,0,0,0-.4619-.7256A6.6062,6.6062,0,0,0,9.856,11.3l-3.3-1.0557L5.2358,9.65H16.5879L21.01,9.584l5.8735-.1983,3.96.1319A12.7122,12.7122,0,0,1,32.56,9.584h.33a4.0993,4.0993,0,0,0,.66.1318q.9236.1334,1.188.1983a23.4168,23.4168,0,0,1,7.59,2.64,23.0163,23.0163,0,0,1,7.6558,6.6006,21.2384,21.2384,0,0,1,4.0923,11.22ZM44.77,21.0684a19.2882,19.2882,0,0,0-11.748-7.8545l-2.772-.33-4.2241-.1318q-1.9146,0-2.376.0664-.4621,0-1.65.0654l-.396.0664a4.7541,4.7541,0,0,0-2.376.5273,1.7786,1.7786,0,0,0-.726.792L18.37,15.6563V50.4375a4.1836,4.1836,0,0,0,.0659,1.0566,1.9537,1.9537,0,0,0,.2642.99,2.08,2.08,0,0,0,.99,1.0556,7.7483,7.7483,0,0,0,2.64.462,29.7531,29.7531,0,0,0,4.4878.2636,43.5589,43.5589,0,0,0,5.1479-.33,13.6538,13.6538,0,0,0,4.0264-1.122q4.3557-2.1108,5.2139-2.64a17.1588,17.1588,0,0,0,5.28-5.4121,19.3215,19.3215,0,0,0,2.4424-10.164A22.637,22.637,0,0,0,44.77,21.0684Z" transform="translate(-3.812 -8.1455)" style="fill:none;stroke:#000;stroke-miterlimit:10;stroke-width:0.5px"/></g><g style="isolation:isolate"><path d="M74.1357,57.17H50.8975l.97-.3232,2.3559-.6934a5.4761,5.4761,0,0,0,1.71-.8779,1.3863,1.3863,0,0,0,.416-.877l.0923-1.1093V27.186a3.6968,3.6968,0,0,0-.0464-.7851q-.093-.2776-.1387-.4619a1.6366,1.6366,0,0,1-.2768-.3238,6.4672,6.4672,0,0,0-2.3565-1.1089l-1.7553-.5078-.97-.3237H72.8423v7.3921l-.647-1.7554-.6006-1.6636a2.5169,2.5169,0,0,0-.8315-1.1083,5.575,5.575,0,0,0-1.2471-.5083,8.2732,8.2732,0,0,0-1.5249-.1387H61.8a4.3966,4.3966,0,0,0-.8774.0464.6016.6016,0,0,0-.462.2768,1.1657,1.1657,0,0,0-.2773.5547l-.0464.7852V38.9668h7.3457L68.5,38.9209a2.0272,2.0272,0,0,0,.7852-.37c.0307-.0293.0766-.0762.1386-.1387a1.56,1.56,0,0,1,.1851-.23l.1846-.1845a1.5713,1.5713,0,0,0,.3237-.647l.9238-1.894V46.082l-.37-1.0166-.647-1.9863a2.6979,2.6979,0,0,0-.97-1.4326,3.4594,3.4594,0,0,0-1.0161-.3233,13.2814,13.2814,0,0,0-1.4321-.0927H60.1372V52.3652a4.5989,4.5989,0,0,0,.1851,1.4317,1.1469,1.1469,0,0,0,.5542.9238l.6006.1856.6.0458h8.6856l.4619.0459.4624-.0459a1.0974,1.0974,0,0,0,.4619-.1376q.4614-.1846.8779-1.34a11.46,11.46,0,0,1,.3692-1.1094,5.7073,5.7073,0,0,1,.416-1.1093l.5542-1.4317Z" transform="translate(-3.812 -8.1455)" style="fill:#fff"/><path d="M93.7246,31.0669l-.647-1.7554-.6005-1.6636a2.5179,2.5179,0,0,0-.8316-1.1083,4.4259,4.4259,0,0,0-1.2012-.5083q-.74-.0924-1.0166-.1387H84.3l-1.063.0464a1.2543,1.2543,0,0,0-.9238.3691,1.3814,1.3814,0,0,0-.37.6934l-.0923.8315V38.9668h6.93l1.0161-.0459a1.4,1.4,0,0,0,.7392-.37l.0923-.0459c.0615-.0615.1231-.1221.1851-.1846.03-.03.061-.0615.0923-.0918a.1309.1309,0,0,1,.0463-.0928l.0923-.0927a.1345.1345,0,0,1,.0459-.0923,1.9724,1.9724,0,0,0,.3238-.6006l.9238-1.894V46.082l-.37-1.0166-.6465-1.9863a2.7012,2.7012,0,0,0-.97-1.4326,3.6157,3.6157,0,0,0-1.063-.3233,12.9853,12.9853,0,0,0-1.3858-.0927H81.8511V53.4746a3.81,3.81,0,0,0,.0464.415.89.89,0,0,1,.0459.2774,2.4915,2.4915,0,0,0,.4619,1.0166,2.6505,2.6505,0,0,0,.6933.4619q.5545.2314,1.1548.415l2.2637.6934.97.416H72.6108l.97-.3232,2.3564-.6934a5.5047,5.5047,0,0,0,1.7554-.8779,3.656,3.656,0,0,0,.3237-.7383,1.9972,1.9972,0,0,1,.1387-.5547V27.186a3.6968,3.6968,0,0,0-.0464-.7851q-.093-.2776-.1387-.4619a1.6382,1.6382,0,0,1-.2773-.3238,6.463,6.463,0,0,0-2.356-1.1089l-1.7558-.5078-.97-.3237H93.7246Z" transform="translate(-3.812 -8.1455)" style="fill:#fff"/><path d="M114.8833,57.17H91.645l.97-.3232,2.356-.6934a5.4761,5.4761,0,0,0,1.71-.8779,1.3868,1.3868,0,0,0,.416-.877l.0923-1.1093V27.186a3.6968,3.6968,0,0,0-.0464-.7851q-.093-.2776-.1387-.4619a1.6293,1.6293,0,0,1-.2768-.3238,6.4682,6.4682,0,0,0-2.3565-1.1089l-1.7554-.5078-.97-.3237H113.59v7.3921l-.6469-1.7554-.6006-1.6636a2.5171,2.5171,0,0,0-.8316-1.1083,5.5744,5.5744,0,0,0-1.247-.5083,8.2732,8.2732,0,0,0-1.5249-.1387h-6.1909a4.3987,4.3987,0,0,0-.8775.0464.6016.6016,0,0,0-.4619.2768,1.1657,1.1657,0,0,0-.2773.5547l-.0464.7852V38.9668h7.3457l1.0166-.0459a2.0275,2.0275,0,0,0,.7851-.37c.0308-.0293.0767-.0762.1387-.1387a1.5469,1.5469,0,0,1,.1851-.23l.1845-.1845a1.57,1.57,0,0,0,.3238-.647l.9238-1.894V46.082l-.37-1.0166-.647-1.9863a2.6985,2.6985,0,0,0-.97-1.4326,3.4594,3.4594,0,0,0-1.0161-.3233,13.2831,13.2831,0,0,0-1.4322-.0927h-6.4682V52.3652a4.6022,4.6022,0,0,0,.185,1.4317,1.1471,1.1471,0,0,0,.5542.9238l.6006.1856.6006.0458h8.6855l.462.0459.4624-.0459a1.0982,1.0982,0,0,0,.4619-.1376q.4614-.1846.8779-1.34a11.4576,11.4576,0,0,1,.3691-1.1094,5.706,5.706,0,0,1,.4161-1.1093l.5542-1.4317Z" transform="translate(-3.812 -8.1455)" style="fill:#fff"/><path d="M151.5659,24.0908a13.4474,13.4474,0,0,0-1.6167.7393,6.3285,6.3285,0,0,0-1.063.7851,1.7013,1.7013,0,0,0-.37.7857,6.9626,6.9626,0,0,0-.1382,1.5244l-.0928,2.541v1.0166l.0464,25.687h-2.125l-5.313-6.1445-2.2177-2.4024q-3.8358-4.204-10.626-11.3652-6.145-6.4211-7.6231-7.8081v23.1l.1387,1.2471a3.0722,3.0722,0,0,0,.3233,1.0625,2.2433,2.2433,0,0,0,.7392.832l.1387.0469q.4159.1845,1.6631.6924l.416.1845,1.2471.4629H113.6357l.7393-.37,1.8481-.831a2.7887,2.7887,0,0,0,1.34-1.0625,4.2639,4.2639,0,0,0,.2768-.9249V53.751q.0924-.97.0928-1.34l.0459-3.28V23.5825h2.541l.7857,1.0166a6.8865,6.8865,0,0,0,.6006.7388,6.588,6.588,0,0,1,.4155.5547,6.9186,6.9186,0,0,1,.8315.97l.0464.0459a1.4652,1.4652,0,0,0,.1846.2314q.2775.3239.6933.7388,1.0152,1.0635,1.3858,1.4326,2.1709,2.3562,2.8647,3.0489,2.4947,2.68,3.7422,4.02l8.6392,9.24q4.3887,4.667,4.9433,5.1748V28.7109l-.0922-1.94a2.4419,2.4419,0,0,0-.1851-1.063,2.4529,2.4529,0,0,0-1.3394-.97l-.2773-.1382q-.2322-.0922-.5547-.2309l-.2768-.0928a3.3271,3.3271,0,0,0-.4161-.1387q-.093-.0454-.1845-.0923a.1369.1369,0,0,0-.0928-.0459.3608.3608,0,0,0-.1382-.0464l-.7392-.37h11.4575Z" transform="translate(-3.812 -8.1455)" style="fill:#fff"/><path d="M184.6445,40.5381a16.0774,16.0774,0,0,1-3.0029,9.748,17.2171,17.2171,0,0,1-6.2832,5.128,19.7771,19.7771,0,0,1-5.313,1.8476l-1.4321.1856-1.6631.0459c-.3394,0-.6929-.0157-1.0625-.0459a3.44,3.44,0,0,0-.647-.0469q-.5544-.0454-1.6172-.0459l-4.019-.1846h-9.2866l.97-.3691c.1538-.0625.3237-.1231.5083-.1856q.1384-.0453.416-.1386a.3744.3744,0,0,1,.1387-.0459,7.3662,7.3662,0,0,0,1.1084-.4151,4.1823,4.1823,0,0,0,1.7094-1.0635,4.552,4.552,0,0,0,.5547-.97,4.6032,4.6032,0,0,0,.1387-1.2011V27.5557a.6368.6368,0,0,1-.0464-.2774.6521.6521,0,0,0-.0464-.2768.6454.6454,0,0,1-.0459-.2774.746.746,0,0,1-.0464-.2309,2.8748,2.8748,0,0,0-.3232-.5083,4.625,4.625,0,0,0-1.7559-.9239l-2.31-.7392-.9238-.416h7.9462l3.0958-.0459,4.1118-.1387,2.7719.0923a8.8755,8.8755,0,0,1,1.2012.0464h.231a2.8918,2.8918,0,0,0,.4619.0922q.6466.0931.8315.1387a16.37,16.37,0,0,1,5.313,1.8482,16.11,16.11,0,0,1,5.3594,4.62,14.8682,14.8682,0,0,1,2.8642,7.8535Zm-6.6064-8.64a13.5038,13.5038,0,0,0-8.2236-5.4975l-1.9405-.231-2.9565-.0928q-1.3411,0-1.6636.0464-.3237,0-1.1548.0464l-.2773.0459a3.328,3.328,0,0,0-1.6631.37,1.2422,1.2422,0,0,0-.5083.5547l-.0923.97V52.457a2.9252,2.9252,0,0,0,.0464.74,1.3661,1.3661,0,0,0,.1846.6923,1.4548,1.4548,0,0,0,.6928.7393,5.4338,5.4338,0,0,0,1.8482.3232,20.7723,20.7723,0,0,0,3.1416.1846,30.56,30.56,0,0,0,3.6035-.23,9.5952,9.5952,0,0,0,2.8184-.7852q3.0491-1.4794,3.65-1.8477a12.019,12.019,0,0,0,3.6958-3.789,13.5267,13.5267,0,0,0,1.7094-7.1153A15.8482,15.8482,0,0,0,178.0381,31.8984Z" transform="translate(-3.812 -8.1455)" style="fill:#fff"/><path d="M202.34,57.17H179.1016l.97-.3232,2.3559-.6934a5.4761,5.4761,0,0,0,1.71-.8779,1.3863,1.3863,0,0,0,.416-.877l.0923-1.1093V27.186a3.6968,3.6968,0,0,0-.0464-.7851q-.093-.2776-.1387-.4619a1.6366,1.6366,0,0,1-.2768-.3238,6.4672,6.4672,0,0,0-2.3565-1.1089l-1.7553-.5078-.97-.3237h21.9448v7.3921l-.647-1.7554-.6006-1.6636a2.5169,2.5169,0,0,0-.8315-1.1083,5.575,5.575,0,0,0-1.2471-.5083,8.2716,8.2716,0,0,0-1.5249-.1387h-6.1909a4.3966,4.3966,0,0,0-.8774.0464.6016.6016,0,0,0-.462.2768,1.1657,1.1657,0,0,0-.2773.5547l-.0464.7852V38.9668h7.3457l1.0166-.0459a2.0272,2.0272,0,0,0,.7852-.37c.0307-.0293.0766-.0762.1386-.1387a1.56,1.56,0,0,1,.1851-.23l.1846-.1845a1.5713,1.5713,0,0,0,.3237-.647l.9238-1.894V46.082l-.37-1.0166-.647-1.9863a2.6979,2.6979,0,0,0-.97-1.4326,3.4594,3.4594,0,0,0-1.0161-.3233,13.2814,13.2814,0,0,0-1.4321-.0927h-6.4683V52.3652a4.5989,4.5989,0,0,0,.1851,1.4317,1.1469,1.1469,0,0,0,.5542.9238l.6006.1856.6005.0458h8.6856l.4619.0459.4624-.0459a1.0974,1.0974,0,0,0,.4619-.1376q.4614-.1846.8779-1.34a11.46,11.46,0,0,1,.3692-1.1094,5.7073,5.7073,0,0,1,.416-1.1093l.5542-1.4317Z" transform="translate(-3.812 -8.1455)" style="fill:#fff"/><path d="M230.1519,57.8633l-.5547.0459a6.11,6.11,0,0,1-1.5708-.1846l-.1387-.0469a8.664,8.664,0,0,1-1.1084-.2773,1.9451,1.9451,0,0,1-.4624-.1387,3.579,3.579,0,0,0-.4619-.1836,9.1347,9.1347,0,0,1-2.4487-1.71q-1.6173-1.6626-2.8179-2.9571l-2.9571-3.3261-6.3754-7.0694-1.2012.0469V53.4746a3.81,3.81,0,0,0,.0464.415.89.89,0,0,1,.0459.2774,2.4915,2.4915,0,0,0,.4619,1.0166,2.6523,2.6523,0,0,0,.6933.4619q.5545.2314,1.1548.415l2.2637.6934.97.416H200.8145l.97-.3232q1.8941-.5083,2.3564-.6934a4.7921,4.7921,0,0,0,1.7095-.8779,1.4311,1.4311,0,0,0,.4155-.9238l.0928-1.1543V27.5557a.6353.6353,0,0,1-.0464-.2774.6521.6521,0,0,0-.0464-.2768.6454.6454,0,0,1-.0459-.2774.746.746,0,0,1-.0464-.2309,2.8863,2.8863,0,0,0-.3232-.5083,9.1609,9.1609,0,0,0-2.3565-1.34l-1.7094-.6006-.9239-.37h7.9463l4.0659-.0459,2.7256-.0464a7.8237,7.8237,0,0,1,5.729,2.4024,9.4487,9.4487,0,0,1,2.7256,6.976,8.2413,8.2413,0,0,1-1.3857,4.7588,7.7432,7.7432,0,0,1-3.1416,2.6338,16.0471,16.0471,0,0,1-3.188,1.2471l-.8779.1846,4.851,5.59,2.0328,2.31q.416.4629.97,1.1094l.2309.2764c.1851.2158.4.4473.647.6933a17.3249,17.3249,0,0,0,2.0791,2.1709,13.2857,13.2857,0,0,0,1.7554,1.5713,15.9881,15.9881,0,0,0,2.4023,1.4327l1.1553.6ZM218.5093,27.5557a5.935,5.935,0,0,0-4.2041-1.8941h-1.0166a7.2393,7.2393,0,0,0-.7852.0459,2.2152,2.2152,0,0,0-.5083.0464,4.061,4.061,0,0,0-.8315.0464,1.639,1.639,0,0,0-.6006.3232.8428.8428,0,0,0-.416.5083,7.4647,7.4647,0,0,0-.0923.97v12.52h2.0791a8.729,8.729,0,0,0,6.0058-2.1714,7.1053,7.1053,0,0,0,2.4024-5.59A6.5715,6.5715,0,0,0,218.5093,27.5557Z" transform="translate(-3.812 -8.1455)" style="fill:#fff"/><path d="M245.8135,55.2754a11.1867,11.1867,0,0,1-7.53,2.4492,14.66,14.66,0,0,1-3.1416-.3242,13.5164,13.5164,0,0,1-1.8018-.415l-.4624-.0928-1.894-.5078-.1846-8.5938,1.4322,4.02a4.4855,4.4855,0,0,0,2.4023,2.5879,9.9114,9.9114,0,0,0,3.3726.9239h.8779a6.4788,6.4788,0,0,0,4.5737-1.6641,5.5757,5.5757,0,0,0,1.9863-4.4346,5.1134,5.1134,0,0,0-1.0625-3.28,10.6626,10.6626,0,0,0-2.7255-2.1719l-3.5113-1.94-4.1118-2.31a8.722,8.722,0,0,1-2.9106-2.772,7.887,7.887,0,0,1-1.1089-4.2964,8.9483,8.9483,0,0,1,3.0029-6.93,10.2538,10.2538,0,0,1,6.9766-2.4946,28.0451,28.0451,0,0,1,3.1875.231l.185.0459a18.8134,18.8134,0,0,1,2.4947.4619l.9238.2773.0464,8.732-1.8482-4.666a3.9353,3.9353,0,0,0-1.8476-2.1255,6.9593,6.9593,0,0,0-1.4326-.462,10.62,10.62,0,0,0-1.8941-.1386,7.2016,7.2016,0,0,0-2.541.416,6.1981,6.1981,0,0,0-2.1714,1.4321,5.97,5.97,0,0,0-1.94,4.5738,5.414,5.414,0,0,0,2.2178,4.1118q.5544.416,1.0625.7851l.416.2774a11.5253,11.5253,0,0,0,1.7553.97c.03,0,.0767.0312.1387.0923a1.237,1.237,0,0,1,.2774.1386q3.1875,1.711,4.5737,2.5411a11.9709,11.9709,0,0,1,3.5571,3.0957,7.17,7.17,0,0,1,1.4321,4.5273A8.8449,8.8449,0,0,1,245.8135,55.2754Z" transform="translate(-3.812 -8.1455)" style="fill:#fff"/></g><g style="isolation:isolate"><path d="M74.1357,57.17H50.8975l.97-.3232,2.3559-.6934a5.4761,5.4761,0,0,0,1.71-.8779,1.3863,1.3863,0,0,0,.416-.877l.0923-1.1093V27.186a3.6968,3.6968,0,0,0-.0464-.7851q-.093-.2776-.1387-.4619a1.6366,1.6366,0,0,1-.2768-.3238,6.4672,6.4672,0,0,0-2.3565-1.1089l-1.7553-.5078-.97-.3237H72.8423v7.3921l-.647-1.7554-.6006-1.6636a2.5169,2.5169,0,0,0-.8315-1.1083,5.575,5.575,0,0,0-1.2471-.5083,8.2732,8.2732,0,0,0-1.5249-.1387H61.8a4.3966,4.3966,0,0,0-.8774.0464.6016.6016,0,0,0-.462.2768,1.1657,1.1657,0,0,0-.2773.5547l-.0464.7852V38.9668h7.3457L68.5,38.9209a2.0272,2.0272,0,0,0,.7852-.37c.0307-.0293.0766-.0762.1386-.1387a1.56,1.56,0,0,1,.1851-.23l.1846-.1845a1.5713,1.5713,0,0,0,.3237-.647l.9238-1.894V46.082l-.37-1.0166-.647-1.9863a2.6979,2.6979,0,0,0-.97-1.4326,3.4594,3.4594,0,0,0-1.0161-.3233,13.2814,13.2814,0,0,0-1.4321-.0927H60.1372V52.3652a4.5989,4.5989,0,0,0,.1851,1.4317,1.1469,1.1469,0,0,0,.5542.9238l.6006.1856.6.0458h8.6856l.4619.0459.4624-.0459a1.0974,1.0974,0,0,0,.4619-.1376q.4614-.1846.8779-1.34a11.46,11.46,0,0,1,.3692-1.1094,5.7073,5.7073,0,0,1,.416-1.1093l.5542-1.4317Z" transform="translate(-3.812 -8.1455)" style="fill:none;stroke:#000;stroke-miterlimit:10;stroke-width:0.5px"/><path d="M93.7246,31.0669l-.647-1.7554-.6005-1.6636a2.5179,2.5179,0,0,0-.8316-1.1083,4.4259,4.4259,0,0,0-1.2012-.5083q-.74-.0924-1.0166-.1387H84.3l-1.063.0464a1.2543,1.2543,0,0,0-.9238.3691,1.3814,1.3814,0,0,0-.37.6934l-.0923.8315V38.9668h6.93l1.0161-.0459a1.4,1.4,0,0,0,.7392-.37l.0923-.0459c.0615-.0615.1231-.1221.1851-.1846.03-.03.061-.0615.0923-.0918a.1309.1309,0,0,1,.0463-.0928l.0923-.0927a.1345.1345,0,0,1,.0459-.0923,1.9724,1.9724,0,0,0,.3238-.6006l.9238-1.894V46.082l-.37-1.0166-.6465-1.9863a2.7012,2.7012,0,0,0-.97-1.4326,3.6157,3.6157,0,0,0-1.063-.3233,12.9853,12.9853,0,0,0-1.3858-.0927H81.8511V53.4746a3.81,3.81,0,0,0,.0464.415.89.89,0,0,1,.0459.2774,2.4915,2.4915,0,0,0,.4619,1.0166,2.6505,2.6505,0,0,0,.6933.4619q.5545.2314,1.1548.415l2.2637.6934.97.416H72.6108l.97-.3232,2.3564-.6934a5.5047,5.5047,0,0,0,1.7554-.8779,3.656,3.656,0,0,0,.3237-.7383,1.9972,1.9972,0,0,1,.1387-.5547V27.186a3.6968,3.6968,0,0,0-.0464-.7851q-.093-.2776-.1387-.4619a1.6382,1.6382,0,0,1-.2773-.3238,6.463,6.463,0,0,0-2.356-1.1089l-1.7558-.5078-.97-.3237H93.7246Z" transform="translate(-3.812 -8.1455)" style="fill:none;stroke:#000;stroke-miterlimit:10;stroke-width:0.5px"/><path d="M114.8833,57.17H91.645l.97-.3232,2.356-.6934a5.4761,5.4761,0,0,0,1.71-.8779,1.3868,1.3868,0,0,0,.416-.877l.0923-1.1093V27.186a3.6968,3.6968,0,0,0-.0464-.7851q-.093-.2776-.1387-.4619a1.6293,1.6293,0,0,1-.2768-.3238,6.4682,6.4682,0,0,0-2.3565-1.1089l-1.7554-.5078-.97-.3237H113.59v7.3921l-.6469-1.7554-.6006-1.6636a2.5171,2.5171,0,0,0-.8316-1.1083,5.5744,5.5744,0,0,0-1.247-.5083,8.2732,8.2732,0,0,0-1.5249-.1387h-6.1909a4.3987,4.3987,0,0,0-.8775.0464.6016.6016,0,0,0-.4619.2768,1.1657,1.1657,0,0,0-.2773.5547l-.0464.7852V38.9668h7.3457l1.0166-.0459a2.0275,2.0275,0,0,0,.7851-.37c.0308-.0293.0767-.0762.1387-.1387a1.5469,1.5469,0,0,1,.1851-.23l.1845-.1845a1.57,1.57,0,0,0,.3238-.647l.9238-1.894V46.082l-.37-1.0166-.647-1.9863a2.6985,2.6985,0,0,0-.97-1.4326,3.4594,3.4594,0,0,0-1.0161-.3233,13.2831,13.2831,0,0,0-1.4322-.0927h-6.4682V52.3652a4.6022,4.6022,0,0,0,.185,1.4317,1.1471,1.1471,0,0,0,.5542.9238l.6006.1856.6006.0458h8.6855l.462.0459.4624-.0459a1.0982,1.0982,0,0,0,.4619-.1376q.4614-.1846.8779-1.34a11.4576,11.4576,0,0,1,.3691-1.1094,5.706,5.706,0,0,1,.4161-1.1093l.5542-1.4317Z" transform="translate(-3.812 -8.1455)" style="fill:none;stroke:#000;stroke-miterlimit:10;stroke-width:0.5px"/><path d="M151.5659,24.0908a13.4474,13.4474,0,0,0-1.6167.7393,6.3285,6.3285,0,0,0-1.063.7851,1.7013,1.7013,0,0,0-.37.7857,6.9626,6.9626,0,0,0-.1382,1.5244l-.0928,2.541v1.0166l.0464,25.687h-2.125l-5.313-6.1445-2.2177-2.4024q-3.8358-4.204-10.626-11.3652-6.145-6.4211-7.6231-7.8081v23.1l.1387,1.2471a3.0722,3.0722,0,0,0,.3233,1.0625,2.2433,2.2433,0,0,0,.7392.832l.1387.0469q.4159.1845,1.6631.6924l.416.1845,1.2471.4629H113.6357l.7393-.37,1.8481-.831a2.7887,2.7887,0,0,0,1.34-1.0625,4.2639,4.2639,0,0,0,.2768-.9249V53.751q.0924-.97.0928-1.34l.0459-3.28V23.5825h2.541l.7857,1.0166a6.8865,6.8865,0,0,0,.6006.7388,6.588,6.588,0,0,1,.4155.5547,6.9186,6.9186,0,0,1,.8315.97l.0464.0459a1.4652,1.4652,0,0,0,.1846.2314q.2775.3239.6933.7388,1.0152,1.0635,1.3858,1.4326,2.1709,2.3562,2.8647,3.0489,2.4947,2.68,3.7422,4.02l8.6392,9.24q4.3887,4.667,4.9433,5.1748V28.7109l-.0922-1.94a2.4419,2.4419,0,0,0-.1851-1.063,2.4529,2.4529,0,0,0-1.3394-.97l-.2773-.1382q-.2322-.0922-.5547-.2309l-.2768-.0928a3.3271,3.3271,0,0,0-.4161-.1387q-.093-.0454-.1845-.0923a.1369.1369,0,0,0-.0928-.0459.3608.3608,0,0,0-.1382-.0464l-.7392-.37h11.4575Z" transform="translate(-3.812 -8.1455)" style="fill:none;stroke:#000;stroke-miterlimit:10;stroke-width:0.5px"/><path d="M184.6445,40.5381a16.0774,16.0774,0,0,1-3.0029,9.748,17.2171,17.2171,0,0,1-6.2832,5.128,19.7771,19.7771,0,0,1-5.313,1.8476l-1.4321.1856-1.6631.0459c-.3394,0-.6929-.0157-1.0625-.0459a3.44,3.44,0,0,0-.647-.0469q-.5544-.0454-1.6172-.0459l-4.019-.1846h-9.2866l.97-.3691c.1538-.0625.3237-.1231.5083-.1856q.1384-.0453.416-.1386a.3744.3744,0,0,1,.1387-.0459,7.3662,7.3662,0,0,0,1.1084-.4151,4.1823,4.1823,0,0,0,1.7094-1.0635,4.552,4.552,0,0,0,.5547-.97,4.6032,4.6032,0,0,0,.1387-1.2011V27.5557a.6368.6368,0,0,1-.0464-.2774.6521.6521,0,0,0-.0464-.2768.6454.6454,0,0,1-.0459-.2774.746.746,0,0,1-.0464-.2309,2.8748,2.8748,0,0,0-.3232-.5083,4.625,4.625,0,0,0-1.7559-.9239l-2.31-.7392-.9238-.416h7.9462l3.0958-.0459,4.1118-.1387,2.7719.0923a8.8755,8.8755,0,0,1,1.2012.0464h.231a2.8918,2.8918,0,0,0,.4619.0922q.6466.0931.8315.1387a16.37,16.37,0,0,1,5.313,1.8482,16.11,16.11,0,0,1,5.3594,4.62,14.8682,14.8682,0,0,1,2.8642,7.8535Zm-6.6064-8.64a13.5038,13.5038,0,0,0-8.2236-5.4975l-1.9405-.231-2.9565-.0928q-1.3411,0-1.6636.0464-.3237,0-1.1548.0464l-.2773.0459a3.328,3.328,0,0,0-1.6631.37,1.2422,1.2422,0,0,0-.5083.5547l-.0923.97V52.457a2.9252,2.9252,0,0,0,.0464.74,1.3661,1.3661,0,0,0,.1846.6923,1.4548,1.4548,0,0,0,.6928.7393,5.4338,5.4338,0,0,0,1.8482.3232,20.7723,20.7723,0,0,0,3.1416.1846,30.56,30.56,0,0,0,3.6035-.23,9.5952,9.5952,0,0,0,2.8184-.7852q3.0491-1.4794,3.65-1.8477a12.019,12.019,0,0,0,3.6958-3.789,13.5267,13.5267,0,0,0,1.7094-7.1153A15.8482,15.8482,0,0,0,178.0381,31.8984Z" transform="translate(-3.812 -8.1455)" style="fill:none;stroke:#000;stroke-miterlimit:10;stroke-width:0.5px"/><path d="M202.34,57.17H179.1016l.97-.3232,2.3559-.6934a5.4761,5.4761,0,0,0,1.71-.8779,1.3863,1.3863,0,0,0,.416-.877l.0923-1.1093V27.186a3.6968,3.6968,0,0,0-.0464-.7851q-.093-.2776-.1387-.4619a1.6366,1.6366,0,0,1-.2768-.3238,6.4672,6.4672,0,0,0-2.3565-1.1089l-1.7553-.5078-.97-.3237h21.9448v7.3921l-.647-1.7554-.6006-1.6636a2.5169,2.5169,0,0,0-.8315-1.1083,5.575,5.575,0,0,0-1.2471-.5083,8.2716,8.2716,0,0,0-1.5249-.1387h-6.1909a4.3966,4.3966,0,0,0-.8774.0464.6016.6016,0,0,0-.462.2768,1.1657,1.1657,0,0,0-.2773.5547l-.0464.7852V38.9668h7.3457l1.0166-.0459a2.0272,2.0272,0,0,0,.7852-.37c.0307-.0293.0766-.0762.1386-.1387a1.56,1.56,0,0,1,.1851-.23l.1846-.1845a1.5713,1.5713,0,0,0,.3237-.647l.9238-1.894V46.082l-.37-1.0166-.647-1.9863a2.6979,2.6979,0,0,0-.97-1.4326,3.4594,3.4594,0,0,0-1.0161-.3233,13.2814,13.2814,0,0,0-1.4321-.0927h-6.4683V52.3652a4.5989,4.5989,0,0,0,.1851,1.4317,1.1469,1.1469,0,0,0,.5542.9238l.6006.1856.6005.0458h8.6856l.4619.0459.4624-.0459a1.0974,1.0974,0,0,0,.4619-.1376q.4614-.1846.8779-1.34a11.46,11.46,0,0,1,.3692-1.1094,5.7073,5.7073,0,0,1,.416-1.1093l.5542-1.4317Z" transform="translate(-3.812 -8.1455)" style="fill:none;stroke:#000;stroke-miterlimit:10;stroke-width:0.5px"/><path d="M230.1519,57.8633l-.5547.0459a6.11,6.11,0,0,1-1.5708-.1846l-.1387-.0469a8.664,8.664,0,0,1-1.1084-.2773,1.9451,1.9451,0,0,1-.4624-.1387,3.579,3.579,0,0,0-.4619-.1836,9.1347,9.1347,0,0,1-2.4487-1.71q-1.6173-1.6626-2.8179-2.9571l-2.9571-3.3261-6.3754-7.0694-1.2012.0469V53.4746a3.81,3.81,0,0,0,.0464.415.89.89,0,0,1,.0459.2774,2.4915,2.4915,0,0,0,.4619,1.0166,2.6523,2.6523,0,0,0,.6933.4619q.5545.2314,1.1548.415l2.2637.6934.97.416H200.8145l.97-.3232q1.8941-.5083,2.3564-.6934a4.7921,4.7921,0,0,0,1.7095-.8779,1.4311,1.4311,0,0,0,.4155-.9238l.0928-1.1543V27.5557a.6353.6353,0,0,1-.0464-.2774.6521.6521,0,0,0-.0464-.2768.6454.6454,0,0,1-.0459-.2774.746.746,0,0,1-.0464-.2309,2.8863,2.8863,0,0,0-.3232-.5083,9.1609,9.1609,0,0,0-2.3565-1.34l-1.7094-.6006-.9239-.37h7.9463l4.0659-.0459,2.7256-.0464a7.8237,7.8237,0,0,1,5.729,2.4024,9.4487,9.4487,0,0,1,2.7256,6.976,8.2413,8.2413,0,0,1-1.3857,4.7588,7.7432,7.7432,0,0,1-3.1416,2.6338,16.0471,16.0471,0,0,1-3.188,1.2471l-.8779.1846,4.851,5.59,2.0328,2.31q.416.4629.97,1.1094l.2309.2764c.1851.2158.4.4473.647.6933a17.3249,17.3249,0,0,0,2.0791,2.1709,13.2857,13.2857,0,0,0,1.7554,1.5713,15.9881,15.9881,0,0,0,2.4023,1.4327l1.1553.6ZM218.5093,27.5557a5.935,5.935,0,0,0-4.2041-1.8941h-1.0166a7.2393,7.2393,0,0,0-.7852.0459,2.2152,2.2152,0,0,0-.5083.0464,4.061,4.061,0,0,0-.8315.0464,1.639,1.639,0,0,0-.6006.3232.8428.8428,0,0,0-.416.5083,7.4647,7.4647,0,0,0-.0923.97v12.52h2.0791a8.729,8.729,0,0,0,6.0058-2.1714,7.1053,7.1053,0,0,0,2.4024-5.59A6.5715,6.5715,0,0,0,218.5093,27.5557Z" transform="translate(-3.812 -8.1455)" style="fill:none;stroke:#000;stroke-miterlimit:10;stroke-width:0.5px"/><path d="M245.8135,55.2754a11.1867,11.1867,0,0,1-7.53,2.4492,14.66,14.66,0,0,1-3.1416-.3242,13.5164,13.5164,0,0,1-1.8018-.415l-.4624-.0928-1.894-.5078-.1846-8.5938,1.4322,4.02a4.4855,4.4855,0,0,0,2.4023,2.5879,9.9114,9.9114,0,0,0,3.3726.9239h.8779a6.4788,6.4788,0,0,0,4.5737-1.6641,5.5757,5.5757,0,0,0,1.9863-4.4346,5.1134,5.1134,0,0,0-1.0625-3.28,10.6626,10.6626,0,0,0-2.7255-2.1719l-3.5113-1.94-4.1118-2.31a8.722,8.722,0,0,1-2.9106-2.772,7.887,7.887,0,0,1-1.1089-4.2964,8.9483,8.9483,0,0,1,3.0029-6.93,10.2538,10.2538,0,0,1,6.9766-2.4946,28.0451,28.0451,0,0,1,3.1875.231l.185.0459a18.8134,18.8134,0,0,1,2.4947.4619l.9238.2773.0464,8.732-1.8482-4.666a3.9353,3.9353,0,0,0-1.8476-2.1255,6.9593,6.9593,0,0,0-1.4326-.462,10.62,10.62,0,0,0-1.8941-.1386,7.2016,7.2016,0,0,0-2.541.416,6.1981,6.1981,0,0,0-2.1714,1.4321,5.97,5.97,0,0,0-1.94,4.5738,5.414,5.414,0,0,0,2.2178,4.1118q.5544.416,1.0625.7851l.416.2774a11.5253,11.5253,0,0,0,1.7553.97c.03,0,.0767.0312.1387.0923a1.237,1.237,0,0,1,.2774.1386q3.1875,1.711,4.5737,2.5411a11.9709,11.9709,0,0,1,3.5571,3.0957,7.17,7.17,0,0,1,1.4321,4.5273A8.8449,8.8449,0,0,1,245.8135,55.2754Z" transform="translate(-3.812 -8.1455)" style="fill:none;stroke:#000;stroke-miterlimit:10;stroke-width:0.5px"/></g><g style="isolation:isolate"><path d="M295.3164,53.2432a17.7649,17.7649,0,0,1-12.7051,4.7588A15.8162,15.8162,0,0,1,270.877,52.92a17.4959,17.4959,0,0,1-4.7588-12.3359,16.8832,16.8832,0,0,1,4.8506-12.15,15.7706,15.7706,0,0,1,11.6884-5.082,18.2032,18.2032,0,0,1,12.5664,4.5273,16.262,16.262,0,0,1,5.4053,12.7051A16.6185,16.6185,0,0,1,295.3164,53.2432Zm-2.4951-22.7305a13.3,13.3,0,0,0-10.21-4.62,11.914,11.914,0,0,0-5.2207,1.1089,11.5786,11.5786,0,0,0-4.2041,3.3261,15.1273,15.1273,0,0,0-3.4648,10.1646,16.8782,16.8782,0,0,0,.9238,5.4512,16.4813,16.4813,0,0,0,2.7725,4.8046q3.9726,4.8048,9.4248,4.8047a13.8807,13.8807,0,0,0,14.1826-14.1836A15.2931,15.2931,0,0,0,292.8213,30.5127Z" transform="translate(-3.812 -8.1455)" style="fill:#fff"/><path d="M316.1992,31.0669l-.6465-1.7554-.6006-1.6636a2.5284,2.5284,0,0,0-.832-1.1083,4.4247,4.4247,0,0,0-1.2012-.5083q-.74-.0924-1.0166-.1387h-5.1279l-1.0625.0464a1.2527,1.2527,0,0,0-.9238.3691,1.3745,1.3745,0,0,0-.37.6934l-.0928.8315V38.9668h6.9307l1.0166-.0459a1.4077,1.4077,0,0,0,.7392-.37l.0918-.0459c.0615-.0615.1231-.1221.1846-.1846.03-.03.0615-.0615.0928-.0918a.1338.1338,0,0,1,.0459-.0928l.0927-.0927a.1324.1324,0,0,1,.0459-.0923,1.9633,1.9633,0,0,0,.3233-.6006l.9248-1.894V46.082l-.37-1.0166-.6465-1.9863a2.6988,2.6988,0,0,0-.9707-1.4326,3.5985,3.5985,0,0,0-1.0625-.3233,13,13,0,0,0-1.3858-.0927h-6.0527V53.4746a3.8619,3.8619,0,0,0,.0469.415.89.89,0,0,1,.0459.2774,2.4849,2.4849,0,0,0,.4619,1.0166,2.6592,2.6592,0,0,0,.6933.4619,12.1733,12.1733,0,0,0,1.1553.415l2.2637.6934.97.416h-14.876l.97-.3232,2.3564-.6934a5.5151,5.5151,0,0,0,1.7559-.8779,3.7084,3.7084,0,0,0,.3232-.7383,2.0179,2.0179,0,0,1,.1387-.5547V27.186a3.6107,3.6107,0,0,0-.0469-.7851q-.0923-.2776-.1377-.4619a1.6023,1.6023,0,0,1-.2773-.3238,6.473,6.473,0,0,0-2.3565-1.1089l-1.7558-.5078-.97-.3237h21.1133Z" transform="translate(-3.812 -8.1455)" style="fill:#fff"/></g><g style="isolation:isolate"><path d="M295.3164,53.2432a17.7649,17.7649,0,0,1-12.7051,4.7588A15.8162,15.8162,0,0,1,270.877,52.92a17.4959,17.4959,0,0,1-4.7588-12.3359,16.8832,16.8832,0,0,1,4.8506-12.15,15.7706,15.7706,0,0,1,11.6884-5.082,18.2032,18.2032,0,0,1,12.5664,4.5273,16.262,16.262,0,0,1,5.4053,12.7051A16.6185,16.6185,0,0,1,295.3164,53.2432Zm-2.4951-22.7305a13.3,13.3,0,0,0-10.21-4.62,11.914,11.914,0,0,0-5.2207,1.1089,11.5786,11.5786,0,0,0-4.2041,3.3261,15.1273,15.1273,0,0,0-3.4648,10.1646,16.8782,16.8782,0,0,0,.9238,5.4512,16.4813,16.4813,0,0,0,2.7725,4.8046q3.9726,4.8048,9.4248,4.8047a13.8807,13.8807,0,0,0,14.1826-14.1836A15.2931,15.2931,0,0,0,292.8213,30.5127Z" transform="translate(-3.812 -8.1455)" style="fill:none;stroke:#000;stroke-miterlimit:10;stroke-width:0.5px"/><path d="M316.1992,31.0669l-.6465-1.7554-.6006-1.6636a2.5284,2.5284,0,0,0-.832-1.1083,4.4247,4.4247,0,0,0-1.2012-.5083q-.74-.0924-1.0166-.1387h-5.1279l-1.0625.0464a1.2527,1.2527,0,0,0-.9238.3691,1.3745,1.3745,0,0,0-.37.6934l-.0928.8315V38.9668h6.9307l1.0166-.0459a1.4077,1.4077,0,0,0,.7392-.37l.0918-.0459c.0615-.0615.1231-.1221.1846-.1846.03-.03.0615-.0615.0928-.0918a.1338.1338,0,0,1,.0459-.0928l.0927-.0927a.1324.1324,0,0,1,.0459-.0923,1.9633,1.9633,0,0,0,.3233-.6006l.9248-1.894V46.082l-.37-1.0166-.6465-1.9863a2.6988,2.6988,0,0,0-.9707-1.4326,3.5985,3.5985,0,0,0-1.0625-.3233,13,13,0,0,0-1.3858-.0927h-6.0527V53.4746a3.8619,3.8619,0,0,0,.0469.415.89.89,0,0,1,.0459.2774,2.4849,2.4849,0,0,0,.4619,1.0166,2.6592,2.6592,0,0,0,.6933.4619,12.1733,12.1733,0,0,0,1.1553.415l2.2637.6934.97.416h-14.876l.97-.3232,2.3564-.6934a5.5151,5.5151,0,0,0,1.7559-.8779,3.7084,3.7084,0,0,0,.3232-.7383,2.0179,2.0179,0,0,1,.1387-.5547V27.186a3.6107,3.6107,0,0,0-.0469-.7851q-.0923-.2776-.1377-.4619a1.6023,1.6023,0,0,1-.2773-.3238,6.473,6.473,0,0,0-2.3565-1.1089l-1.7558-.5078-.97-.3237h21.1133Z" transform="translate(-3.812 -8.1455)" style="fill:none;stroke:#000;stroke-miterlimit:10;stroke-width:0.5px"/></g><g style="isolation:isolate"><g style="isolation:isolate"><path d="M355.5674,54.4639q-4.0928,3.4995-10.7578,3.498a20.9948,20.9948,0,0,1-4.4883-.4619,19.509,19.509,0,0,1-2.5742-.5937l-.6592-.1329-2.7061-.7255-.2646-12.2764,2.0459,5.7422a6.4049,6.4049,0,0,0,3.4326,3.6963,14.1622,14.1622,0,0,0,4.8174,1.32h1.2539a9.2569,9.2569,0,0,0,6.5342-2.376,7.9669,7.9669,0,0,0,2.8379-6.3359,7.3083,7.3083,0,0,0-1.5176-4.6866,15.1878,15.1878,0,0,0-3.8936-3.1015l-5.0166-2.7725-5.874-3.3a12.4624,12.4624,0,0,1-4.1582-3.96,11.2716,11.2716,0,0,1-1.584-6.1376,12.7834,12.7834,0,0,1,4.29-9.9,14.6457,14.6457,0,0,1,9.9658-3.5645,40.0915,40.0915,0,0,1,4.5547.33l.2636.0664a26.7205,26.7205,0,0,1,3.5645.66l1.3193.3956.0664,12.4746-2.64-6.666a5.6262,5.6262,0,0,0-2.6406-3.0362,9.8958,9.8958,0,0,0-2.0459-.66,15.1527,15.1527,0,0,0-2.7061-.1983,10.3042,10.3042,0,0,0-3.63.5938,8.8493,8.8493,0,0,0-3.1015,2.0468,8.5253,8.5253,0,0,0-2.7725,6.5332q0,3.1686,3.168,5.8741.7924.5948,1.5185,1.122l.5938.3965a16.3894,16.3894,0,0,0,2.5078,1.3858c.043,0,.1094.0439.1982.1318a1.7043,1.7043,0,0,1,.3955.1982q4.5543,2.442,6.5342,3.63a17.1113,17.1113,0,0,1,5.082,4.4219,10.2478,10.2478,0,0,1,2.0459,6.4678Q359.5273,50.9,355.5674,54.4639Z" transform="translate(-3.812 -8.1455)" style="fill:#fff"/></g><g style="isolation:isolate"><path d="M355.5674,54.4639q-4.0928,3.4995-10.7578,3.498a20.9948,20.9948,0,0,1-4.4883-.4619,19.509,19.509,0,0,1-2.5742-.5937l-.6592-.1329-2.7061-.7255-.2646-12.2764,2.0459,5.7422a6.4049,6.4049,0,0,0,3.4326,3.6963,14.1622,14.1622,0,0,0,4.8174,1.32h1.2539a9.2569,9.2569,0,0,0,6.5342-2.376,7.9669,7.9669,0,0,0,2.8379-6.3359,7.3083,7.3083,0,0,0-1.5176-4.6866,15.1878,15.1878,0,0,0-3.8936-3.1015l-5.0166-2.7725-5.874-3.3a12.4624,12.4624,0,0,1-4.1582-3.96,11.2716,11.2716,0,0,1-1.584-6.1376,12.7834,12.7834,0,0,1,4.29-9.9,14.6457,14.6457,0,0,1,9.9658-3.5645,40.0915,40.0915,0,0,1,4.5547.33l.2636.0664a26.7205,26.7205,0,0,1,3.5645.66l1.3193.3956.0664,12.4746-2.64-6.666a5.6262,5.6262,0,0,0-2.6406-3.0362,9.8958,9.8958,0,0,0-2.0459-.66,15.1527,15.1527,0,0,0-2.7061-.1983,10.3042,10.3042,0,0,0-3.63.5938,8.8493,8.8493,0,0,0-3.1015,2.0468,8.5253,8.5253,0,0,0-2.7725,6.5332q0,3.1686,3.168,5.8741.7924.5948,1.5185,1.122l.5938.3965a16.3894,16.3894,0,0,0,2.5078,1.3858c.043,0,.1094.0439.1982.1318a1.7043,1.7043,0,0,1,.3955.1982q4.5543,2.442,6.5342,3.63a17.1113,17.1113,0,0,1,5.082,4.4219,10.2478,10.2478,0,0,1,2.0459,6.4678Q359.5273,50.9,355.5674,54.4639Z" transform="translate(-3.812 -8.1455)" style="fill:none;stroke:#000;stroke-miterlimit:10;stroke-width:0.5px"/></g></g><g style="isolation:isolate"><path d="M387.8887,58.3242h-.416a12.4944,12.4944,0,0,1-1.34-.0449,13.5266,13.5266,0,0,1-1.3857-.2773l-.2315-.0469a6.2262,6.2262,0,0,1-2.541-.8321,4.0313,4.0313,0,0,1-.4619-.3222q-1.5249-.9713-2.125-1.4326a14.334,14.334,0,0,1-1.4785-1.1553l-.416-.416q-.0469-.044-.4161-.416a3.0438,3.0438,0,0,1-.4619-.461L365.4346,40.5381V53.4746a3.8791,3.8791,0,0,0,.0468.415.887.887,0,0,1,.0459.2774,2.4865,2.4865,0,0,0,.462,1.0166,2.6592,2.6592,0,0,0,.6933.4619,12.1733,12.1733,0,0,0,1.1553.415l2.2637.6934.97.416h-14.876l.97-.3232,2.3565-.6934a5.5131,5.5131,0,0,0,1.7558-.8779,3.7036,3.7036,0,0,0,.3233-.7383,2.0179,2.0179,0,0,1,.1387-.5547V27.4634a6.5225,6.5225,0,0,0-.0928-.878v-.1386a2.2067,2.2067,0,0,0-.3233-.8316,4.6278,4.6278,0,0,0-1.2011-.6464q-.2769-.0924-.6934-.2774a1.891,1.891,0,0,0-.2305-.0923,1.6921,1.6921,0,0,1-.2314-.0928l-.6924-.1845-.416-.1387c-.34-.0923-.57-.1538-.6934-.1846l-.97-.3237h14.876l-.97.416-1.6631.5083a6.3307,6.3307,0,0,0-2.4033,1.0625,3.9147,3.9147,0,0,0-.5079,1.0161l-.0927,1.4327V39.1982l7.5771-7.392.9238-.9239q.1847-.1845.5088-.4624.2769-.2767.4151-.4155l1.5254-1.5249q1.478-1.6164,1.4785-2.2637a.2688.2688,0,0,0-.0469-.1845,2.6019,2.6019,0,0,0-1.34-.9244l-1.293-.5078-1.34-.6006h12.705l-1.2939.6929-1.294.5083a8.7263,8.7263,0,0,0-1.57.7393,18.07,18.07,0,0,0-3.0029,2.5869l-3.65,3.6035-7.2529,6.93,8.7783,9.7939q1.9848,2.2178,3.9268,4.1582.369.3237,1.1084.9707.2767.2314.4619.416l1.5244,1.2471a8.7349,8.7349,0,0,0,2.4033,1.2012l1.6631.6465,1.5244.5547Z" transform="translate(-3.812 -8.1455)" style="fill:#fff"/><path d="M416.3008,24.1831q-.5551.1852-1.1553.37h-.0928q-.3237.1384-.7392.2774a7.4756,7.4756,0,0,0-2.0781,1.247l-.0928.0928-.1387.231a1.352,1.352,0,0,0-.2314.2768l-.1377.231-.0928.0928a2.465,2.465,0,0,1-.2774.4155.4711.4711,0,0,0-.0927.1851l-.6006,1.1547L404.0576,40.168,404.0117,52.92v.7383a2.7117,2.7117,0,0,0,.0459.416l.0459.1387v.0928a1.8645,1.8645,0,0,0,.5547,1.0166,3.5,3.5,0,0,0,1.8018.8769,18.6164,18.6164,0,0,1,2.2636.6934l.9707.416H394.8174l1.0166-.3232,2.31-.6934a5.4791,5.4791,0,0,0,1.71-.8779,2.5775,2.5775,0,0,0,.416-.877,2.0473,2.0473,0,0,1,.1377-.5547v-.37l-.0459-.5078V41.4619l-2.8183-5.59a40.391,40.391,0,0,0-2.2637-3.8809q-.6928-1.015-1.1084-1.7553a17.01,17.01,0,0,0-1.0166-1.4786,1.9079,1.9079,0,0,0-.2314-.2773,12.3247,12.3247,0,0,0-2.3555-2.4482,13.6018,13.6018,0,0,0-2.541-1.4786l-1.7559-.7856,1.57-.3692.6934-.0463a8.7955,8.7955,0,0,1,3.05.6005,11.3413,11.3413,0,0,1,1.8017.7852,8.1042,8.1042,0,0,1,1.3858,1.0166,21.6073,21.6073,0,0,1,3.0029,3.6958q.1846.2776.8779,1.4326l.1846.2769q.3691.6474.6006,1.0166t.6006,1.0161l2.5869,4.8511,5.082-9.1011a18.9529,18.9529,0,0,0,.8321-1.7559,2.5353,2.5353,0,0,0,.3232-1.0625.1352.1352,0,0,0-.0459-.0922q-.186-.693-3.28-1.8946l-.7392-.3232h12.4736Z" transform="translate(-3.812 -8.1455)" style="fill:#fff"/><path d="M445.2217,57.8633l-.5547.0459a6.1088,6.1088,0,0,1-1.57-.1846l-.1387-.0469a8.7267,8.7267,0,0,1-1.1094-.2773,1.9575,1.9575,0,0,1-.4619-.1387,3.5967,3.5967,0,0,0-.4619-.1836,9.129,9.129,0,0,1-2.4482-1.71q-1.6187-1.6626-2.8184-2.9571l-2.957-3.3261-6.375-7.0694-1.2022.0469V53.4746a3.8619,3.8619,0,0,0,.0469.415.887.887,0,0,1,.0459.2774,2.4849,2.4849,0,0,0,.4619,1.0166,2.66,2.66,0,0,0,.6934.4619,12.1713,12.1713,0,0,0,1.1552.415l2.2637.6934.97.416H415.8848l.97-.3232q1.8941-.5083,2.3564-.6934a4.7872,4.7872,0,0,0,1.709-.8779,1.4341,1.4341,0,0,0,.416-.9238l.0928-1.1543V27.5557a.6357.6357,0,0,1-.0469-.2774.6532.6532,0,0,0-.0459-.2768.6379.6379,0,0,1-.0459-.2774.7431.7431,0,0,1-.0459-.2309,2.879,2.879,0,0,0-.3242-.5083,9.1385,9.1385,0,0,0-2.3554-1.34l-1.71-.6006-.9238-.37h7.9463l4.0654-.0459,2.7265-.0464a7.8238,7.8238,0,0,1,5.7286,2.4024,9.4505,9.4505,0,0,1,2.7255,6.976,8.2413,8.2413,0,0,1-1.3857,4.7588,7.74,7.74,0,0,1-3.1416,2.6338,16.016,16.016,0,0,1-3.1885,1.2471l-.8769.1846,4.8506,5.59,2.0332,2.31q.4144.4629.97,1.1094l.2314.2764q.2769.3237.6465.6933a17.2964,17.2964,0,0,0,2.0791,2.1709,13.22,13.22,0,0,0,1.7559,1.5713A15.9632,15.9632,0,0,0,445.499,56.94l1.1543.6ZM433.5791,27.5557a5.9357,5.9357,0,0,0-4.2041-1.8941h-1.0166a7.2393,7.2393,0,0,0-.7852.0459,2.2215,2.2215,0,0,0-.5087.0464,4.0587,4.0587,0,0,0-.8311.0464,1.639,1.639,0,0,0-.6006.3232.8428.8428,0,0,0-.416.5083,7.5775,7.5775,0,0,0-.0928.97v12.52h2.0791a8.7317,8.7317,0,0,0,6.0069-2.1714,7.1072,7.1072,0,0,0,2.4023-5.59A6.5739,6.5739,0,0,0,433.5791,27.5557Z" transform="translate(-3.812 -8.1455)" style="fill:#fff"/><path d="M445.6367,57.17l.9707-.3232,2.3565-.6934a5.5063,5.5063,0,0,0,1.7549-.8779,3.6007,3.6007,0,0,0,.3232-.7383,2.0607,2.0607,0,0,1,.1387-.5547V27.3247a5.8149,5.8149,0,0,0-.0459-.97,1.4157,1.4157,0,0,0-.3692-.7393,8.82,8.82,0,0,0-2.4033-1.1089l-1.7549-.5078-.9707-.3237h14.877l-.9707.416-1.6631.5083a6.3334,6.3334,0,0,0-2.4024,1.0625,3.8867,3.8867,0,0,0-.5078,1.0161L454.877,28.11V53.4746a4.0414,4.0414,0,0,0,.0459.415.8913.8913,0,0,1,.0468.2774,2.4744,2.4744,0,0,0,.4619,1.0166,2.6538,2.6538,0,0,0,.6924.4619q.5551.2314,1.1553.415l2.2637.6934.9707.416Z" transform="translate(-3.812 -8.1455)" style="fill:#fff"/><path d="M491.79,57.17l1.4786-.6006,1.7558-.6a2.5492,2.5492,0,0,0,1.2471-.878,2.8915,2.8915,0,0,0,.37-1.0166,3.86,3.86,0,0,0,.1377-1.0156l-.0459-.7852-.1387-.8789L494.84,30.8823l-3.05,5.4512-4.1582,7.854-3.788,7.3-1.34,2.7725L480.98,57.5391l-2.4482-4.6661-1.3868-2.5869q-2.5869-4.8047-4.2959-7.9931-.51-.97-1.6172-2.91l-.0927-.1846A1.4177,1.4177,0,0,0,471,39.0137q-.5537-1.0635-2.1709-3.6963l-1.9873-3.419-1.2012,17.3252-.1386,1.4327L465.41,52.457V53.15a2.1066,2.1066,0,0,0,.0459.416l.0459.416a4.26,4.26,0,0,0,.416,1.1543,2.04,2.04,0,0,0,1.1552.8321l1.8018.6933,1.2471.5078H458.665l.7393-.3691,1.94-.832a3.3307,3.3307,0,0,0,1.3858-1.0167,8.6062,8.6062,0,0,0,.416-2.125,2.1224,2.1224,0,0,1,.0459-.416q.0922-.6928.1387-1.2011.0453-.3224.0459-1.71.2768-2.3086.5546-4.9434a50.8525,50.8525,0,0,0,.2774-5.1269q0-2.1255.1387-4.2046.0923-2.0325.2773-4.3892V28.8491q.0455-.6459.0459-2.3095l.0459-2.8648h2.5869l.6006,1.8481c.0312.0923.0771.231.1387.4161a2.2447,2.2447,0,0,1,.2314.6006v.0922a.1907.1907,0,0,1,.0459.1387c.2158.4316.3535.7085.416.8316q1.3389,2.9106,4.2969,8.3623,1.8018,3.3727,5.2207,9.2856,2.4477,4.2041,3.3262,5.4063,1.2919-2.1709,2.957-5.3594l4.0195-7.7158,4.4805-8.4546q.6475-1.2474,1.2481-2.68l1.2011-2.772h2.4024q0,1.6179.1386,3.3726a14.4584,14.4584,0,0,0,.1387,1.8481,2.741,2.741,0,0,0,.0459.37,1.5378,1.5378,0,0,0,.0459.37,4.7619,4.7619,0,0,0,.0928.5542v.185l1.94,21.7139.2305,1.6631c.0312.0928.0771.2939.1387.6006a2.1536,2.1536,0,0,1,.2773.6005q.2314.4629,1.9873,1.2012l1.57.6006.9238.416Z" transform="translate(-3.812 -8.1455)" style="fill:#fff"/></g><g style="isolation:isolate"><path d="M387.8887,58.3242h-.416a12.4944,12.4944,0,0,1-1.34-.0449,13.5266,13.5266,0,0,1-1.3857-.2773l-.2315-.0469a6.2262,6.2262,0,0,1-2.541-.8321,4.0313,4.0313,0,0,1-.4619-.3222q-1.5249-.9713-2.125-1.4326a14.334,14.334,0,0,1-1.4785-1.1553l-.416-.416q-.0469-.044-.4161-.416a3.0438,3.0438,0,0,1-.4619-.461L365.4346,40.5381V53.4746a3.8791,3.8791,0,0,0,.0468.415.887.887,0,0,1,.0459.2774,2.4865,2.4865,0,0,0,.462,1.0166,2.6592,2.6592,0,0,0,.6933.4619,12.1733,12.1733,0,0,0,1.1553.415l2.2637.6934.97.416h-14.876l.97-.3232,2.3565-.6934a5.5131,5.5131,0,0,0,1.7558-.8779,3.7036,3.7036,0,0,0,.3233-.7383,2.0179,2.0179,0,0,1,.1387-.5547V27.4634a6.5225,6.5225,0,0,0-.0928-.878v-.1386a2.2067,2.2067,0,0,0-.3233-.8316,4.6278,4.6278,0,0,0-1.2011-.6464q-.2769-.0924-.6934-.2774a1.891,1.891,0,0,0-.2305-.0923,1.6921,1.6921,0,0,1-.2314-.0928l-.6924-.1845-.416-.1387c-.34-.0923-.57-.1538-.6934-.1846l-.97-.3237h14.876l-.97.416-1.6631.5083a6.3307,6.3307,0,0,0-2.4033,1.0625,3.9147,3.9147,0,0,0-.5079,1.0161l-.0927,1.4327V39.1982l7.5771-7.392.9238-.9239q.1847-.1845.5088-.4624.2769-.2767.4151-.4155l1.5254-1.5249q1.478-1.6164,1.4785-2.2637a.2688.2688,0,0,0-.0469-.1845,2.6019,2.6019,0,0,0-1.34-.9244l-1.293-.5078-1.34-.6006h12.705l-1.2939.6929-1.294.5083a8.7263,8.7263,0,0,0-1.57.7393,18.07,18.07,0,0,0-3.0029,2.5869l-3.65,3.6035-7.2529,6.93,8.7783,9.7939q1.9848,2.2178,3.9268,4.1582.369.3237,1.1084.9707.2767.2314.4619.416l1.5244,1.2471a8.7349,8.7349,0,0,0,2.4033,1.2012l1.6631.6465,1.5244.5547Z" transform="translate(-3.812 -8.1455)" style="fill:none;stroke:#000;stroke-miterlimit:10;stroke-width:0.5px"/><path d="M416.3008,24.1831q-.5551.1852-1.1553.37h-.0928q-.3237.1384-.7392.2774a7.4756,7.4756,0,0,0-2.0781,1.247l-.0928.0928-.1387.231a1.352,1.352,0,0,0-.2314.2768l-.1377.231-.0928.0928a2.465,2.465,0,0,1-.2774.4155.4711.4711,0,0,0-.0927.1851l-.6006,1.1547L404.0576,40.168,404.0117,52.92v.7383a2.7117,2.7117,0,0,0,.0459.416l.0459.1387v.0928a1.8645,1.8645,0,0,0,.5547,1.0166,3.5,3.5,0,0,0,1.8018.8769,18.6164,18.6164,0,0,1,2.2636.6934l.9707.416H394.8174l1.0166-.3232,2.31-.6934a5.4791,5.4791,0,0,0,1.71-.8779,2.5775,2.5775,0,0,0,.416-.877,2.0473,2.0473,0,0,1,.1377-.5547v-.37l-.0459-.5078V41.4619l-2.8183-5.59a40.391,40.391,0,0,0-2.2637-3.8809q-.6928-1.015-1.1084-1.7553a17.01,17.01,0,0,0-1.0166-1.4786,1.9079,1.9079,0,0,0-.2314-.2773,12.3247,12.3247,0,0,0-2.3555-2.4482,13.6018,13.6018,0,0,0-2.541-1.4786l-1.7559-.7856,1.57-.3692.6934-.0463a8.7955,8.7955,0,0,1,3.05.6005,11.3413,11.3413,0,0,1,1.8017.7852,8.1042,8.1042,0,0,1,1.3858,1.0166,21.6073,21.6073,0,0,1,3.0029,3.6958q.1846.2776.8779,1.4326l.1846.2769q.3691.6474.6006,1.0166t.6006,1.0161l2.5869,4.8511,5.082-9.1011a18.9529,18.9529,0,0,0,.8321-1.7559,2.5353,2.5353,0,0,0,.3232-1.0625.1352.1352,0,0,0-.0459-.0922q-.186-.693-3.28-1.8946l-.7392-.3232h12.4736Z" transform="translate(-3.812 -8.1455)" style="fill:none;stroke:#000;stroke-miterlimit:10;stroke-width:0.5px"/><path d="M445.2217,57.8633l-.5547.0459a6.1088,6.1088,0,0,1-1.57-.1846l-.1387-.0469a8.7267,8.7267,0,0,1-1.1094-.2773,1.9575,1.9575,0,0,1-.4619-.1387,3.5967,3.5967,0,0,0-.4619-.1836,9.129,9.129,0,0,1-2.4482-1.71q-1.6187-1.6626-2.8184-2.9571l-2.957-3.3261-6.375-7.0694-1.2022.0469V53.4746a3.8619,3.8619,0,0,0,.0469.415.887.887,0,0,1,.0459.2774,2.4849,2.4849,0,0,0,.4619,1.0166,2.66,2.66,0,0,0,.6934.4619,12.1713,12.1713,0,0,0,1.1552.415l2.2637.6934.97.416H415.8848l.97-.3232q1.8941-.5083,2.3564-.6934a4.7872,4.7872,0,0,0,1.709-.8779,1.4341,1.4341,0,0,0,.416-.9238l.0928-1.1543V27.5557a.6357.6357,0,0,1-.0469-.2774.6532.6532,0,0,0-.0459-.2768.6379.6379,0,0,1-.0459-.2774.7431.7431,0,0,1-.0459-.2309,2.879,2.879,0,0,0-.3242-.5083,9.1385,9.1385,0,0,0-2.3554-1.34l-1.71-.6006-.9238-.37h7.9463l4.0654-.0459,2.7265-.0464a7.8238,7.8238,0,0,1,5.7286,2.4024,9.4505,9.4505,0,0,1,2.7255,6.976,8.2413,8.2413,0,0,1-1.3857,4.7588,7.74,7.74,0,0,1-3.1416,2.6338,16.016,16.016,0,0,1-3.1885,1.2471l-.8769.1846,4.8506,5.59,2.0332,2.31q.4144.4629.97,1.1094l.2314.2764q.2769.3237.6465.6933a17.2964,17.2964,0,0,0,2.0791,2.1709,13.22,13.22,0,0,0,1.7559,1.5713A15.9632,15.9632,0,0,0,445.499,56.94l1.1543.6ZM433.5791,27.5557a5.9357,5.9357,0,0,0-4.2041-1.8941h-1.0166a7.2393,7.2393,0,0,0-.7852.0459,2.2215,2.2215,0,0,0-.5087.0464,4.0587,4.0587,0,0,0-.8311.0464,1.639,1.639,0,0,0-.6006.3232.8428.8428,0,0,0-.416.5083,7.5775,7.5775,0,0,0-.0928.97v12.52h2.0791a8.7317,8.7317,0,0,0,6.0069-2.1714,7.1072,7.1072,0,0,0,2.4023-5.59A6.5739,6.5739,0,0,0,433.5791,27.5557Z" transform="translate(-3.812 -8.1455)" style="fill:none;stroke:#000;stroke-miterlimit:10;stroke-width:0.5px"/><path d="M445.6367,57.17l.9707-.3232,2.3565-.6934a5.5063,5.5063,0,0,0,1.7549-.8779,3.6007,3.6007,0,0,0,.3232-.7383,2.0607,2.0607,0,0,1,.1387-.5547V27.3247a5.8149,5.8149,0,0,0-.0459-.97,1.4157,1.4157,0,0,0-.3692-.7393,8.82,8.82,0,0,0-2.4033-1.1089l-1.7549-.5078-.9707-.3237h14.877l-.9707.416-1.6631.5083a6.3334,6.3334,0,0,0-2.4024,1.0625,3.8867,3.8867,0,0,0-.5078,1.0161L454.877,28.11V53.4746a4.0414,4.0414,0,0,0,.0459.415.8913.8913,0,0,1,.0468.2774,2.4744,2.4744,0,0,0,.4619,1.0166,2.6538,2.6538,0,0,0,.6924.4619q.5551.2314,1.1553.415l2.2637.6934.9707.416Z" transform="translate(-3.812 -8.1455)" style="fill:none;stroke:#000;stroke-miterlimit:10;stroke-width:0.5px"/><path d="M491.79,57.17l1.4786-.6006,1.7558-.6a2.5492,2.5492,0,0,0,1.2471-.878,2.8915,2.8915,0,0,0,.37-1.0166,3.86,3.86,0,0,0,.1377-1.0156l-.0459-.7852-.1387-.8789L494.84,30.8823l-3.05,5.4512-4.1582,7.854-3.788,7.3-1.34,2.7725L480.98,57.5391l-2.4482-4.6661-1.3868-2.5869q-2.5869-4.8047-4.2959-7.9931-.51-.97-1.6172-2.91l-.0927-.1846A1.4177,1.4177,0,0,0,471,39.0137q-.5537-1.0635-2.1709-3.6963l-1.9873-3.419-1.2012,17.3252-.1386,1.4327L465.41,52.457V53.15a2.1066,2.1066,0,0,0,.0459.416l.0459.416a4.26,4.26,0,0,0,.416,1.1543,2.04,2.04,0,0,0,1.1552.8321l1.8018.6933,1.2471.5078H458.665l.7393-.3691,1.94-.832a3.3307,3.3307,0,0,0,1.3858-1.0167,8.6062,8.6062,0,0,0,.416-2.125,2.1224,2.1224,0,0,1,.0459-.416q.0922-.6928.1387-1.2011.0453-.3224.0459-1.71.2768-2.3086.5546-4.9434a50.8525,50.8525,0,0,0,.2774-5.1269q0-2.1255.1387-4.2046.0923-2.0325.2773-4.3892V28.8491q.0455-.6459.0459-2.3095l.0459-2.8648h2.5869l.6006,1.8481c.0312.0923.0771.231.1387.4161a2.2447,2.2447,0,0,1,.2314.6006v.0922a.1907.1907,0,0,1,.0459.1387c.2158.4316.3535.7085.416.8316q1.3389,2.9106,4.2969,8.3623,1.8018,3.3727,5.2207,9.2856,2.4477,4.2041,3.3262,5.4063,1.2919-2.1709,2.957-5.3594l4.0195-7.7158,4.4805-8.4546q.6475-1.2474,1.2481-2.68l1.2011-2.772h2.4024q0,1.6179.1386,3.3726a14.4584,14.4584,0,0,0,.1387,1.8481,2.741,2.741,0,0,0,.0459.37,1.5378,1.5378,0,0,0,.0459.37,4.7619,4.7619,0,0,0,.0928.5542v.185l1.94,21.7139.2305,1.6631c.0312.0928.0771.2939.1387.6006a2.1536,2.1536,0,0,1,.2773.6005q.2314.4629,1.9873,1.2012l1.57.6006.9238.416Z" transform="translate(-3.812 -8.1455)" style="fill:none;stroke:#000;stroke-miterlimit:10;stroke-width:0.5px"/></g></svg>