<svg id="_x33_0" enable-background="new 0 0 64 64" height="512" viewBox="0 0 64 64" width="512" xmlns="http://www.w3.org/2000/svg"><path d="m60.317 17.683-10.854 2.412-8.666 9.904h-1.849l4.107-3.594-1.334-11.34c-.384-3.263-2.7-5.875-5.721-6.749v-.316c0-2.074-1.592-3.764-3.615-3.961l-2.048-1.536c-1.292-.969-2.893-1.503-4.508-1.503-2.091 0-4.057.814-5.536 2.293s-2.293 3.444-2.293 5.536v7.239c0 1.031-.34 2.053-.996 2.927-.942 1.255-2.439 2.005-4.004 2.005h-2.414l3.293 3.293c1.1 1.101 2.564 1.707 4.121 1.707 1.037 0 2.071-.182 3.054-.516l-.108.922 4.106 3.594-9.872-.002c-2.342 0-4.447 1.301-5.533 3.472-.429.858-.647 1.774-.647 2.722v2.676c0 1.048.558 2.034 1.457 2.572l.543.326v4.335c0 2.137.832 4.146 2.343 5.657l3.743 3.743-1.086 1.085c-.645.645-1 1.502-1 2.414s.355 1.77 1 2.414l.586.586c.645.645 1.502 1 2.414 1s1.77-.355 2.414-1l1.11-1.11c.821.707 1.846 1.11 2.94 1.11.009 0 .017-.003.026-.003v.003h27.51v-20.234l.543-.326c.899-.539 1.457-1.524 1.457-2.572v-2.676c0-.948-.218-1.864-.685-2.799-.197-.393-.438-.756-.71-1.094l4.3-3.762zm-13.731 33.317-1.586 1.586v-3.172zm-.172-3 1.586-1.586 1.586 1.586-1.586 1.586zm-3.414 12h-3v-3.343c0-.79.32-1.563.878-2.121l2.122-2.122zm5-7.586 1.586 1.586h-3.172zm3 .172-1.586-1.586 1.586-1.586zm0-6-1.586-1.586 1.586-1.586zm-5.598-2.77 1.184 1.184-1.586 1.586v-2.894c.133.043.265.09.402.124zm-2.957-1.751c.175.188.36.362.555.525v6.996l-3.536 3.536c-.944.944-1.464 2.199-1.464 3.535v3.343h-8.777c.49-.724.777-1.597.777-2.536 0-1.095-.403-2.119-1.11-2.941l1.11-1.11 2 2 4.414-4.413-1.951-1.951zm-17.031 3.935 1.586-1.586 6.586 6.586-1.586 1.586zm3.172 6-1.086 1.086-2.586-2.586 1.086-1.086zm-1.586-10.414-4.414 4.414 2 2-1.086 1.086-2.207-2.207c-.189-.189-.293-.441-.293-.708v-3.59c.524-.433.986-.946 1.343-1.542l.849-1.415c1.875 1.483 4.237 2.376 6.808 2.376h.296l-1.345 1.537zm-14 1.351c.367.199.746.369 1.136.513l-1.136 1.136zm4.586 3.063-1.586 1.586-1.586-1.586 1.586-1.586zm1.414-1.414-.714-.714c.243-.048.481-.11.714-.187zm-4.414 4.414-.516.516c-.404-.58-.696-1.223-.872-1.904zm1.414 1.414 1.586 1.586-.586.586-1.586-1.586zm3 .172-1.586-1.586 1.586-1.586.879.879.707.707zm3.586-17.586-1.044 1.044c-.235-.652-.404-1.335-.483-2.046h.526zm9.794.966c.52-.032 1.029-.125 1.521-.28l-.9.9zm-2.38.448 1.586 1.586-1.586 1.586-1.586-1.586zm-1.414 4.586-.731.731c-.805-.198-1.569-.5-2.273-.899l1.418-1.418zm-4.64-1.36c-.555-.507-1.05-1.077-1.465-1.707l1.519-1.519 1.586 1.586zm8.272 2.164-.804-.804 1.586-1.586.698.698zm2.8-3.2-.604-.604 1.586-1.586.498.498zm2.8-3.2-.404-.404 1-1h.632zm-13.803-15.974c.298.101.629.208.99.319l.014 2.09-1.136-1.285zm3.018 4.689-.025-3.814c.637.156 1.308.299 1.992.415v5.624zm3.967-3.158c.336.023.671.039 1 .039s.664-.016 1-.039v6.87c-.323.099-.655.169-1 .169s-.677-.07-1-.169zm4-.242c.687-.116 1.36-.26 2-.417v3.778l-2 2.262zm4-.971c.359-.111.689-.218.985-.318l.132 1.125-1.117 1.264zm.734-2.449.011.097c-1.559.547-4.939 1.604-7.745 1.604s-6.186-1.057-7.746-1.604l.011-.097c.356-3.021 2.918-5.299 5.96-5.299h3.551c3.041 0 5.603 2.278 5.958 5.299zm-5.734-7.299v.01c-.075-.002-.149-.01-.225-.01h-3.551c-.075 0-.149.008-.224.01v-.01c0-1.103.897-2 2-2s2 .897 2 2zm-12.745 15.253c-1.01.489-2.133.747-3.255.747-1.022 0-1.984-.398-2.707-1.121l-.203-.203c1.388-.44 2.638-1.313 3.551-2.531.877-1.168 1.359-2.616 1.359-4.077v-7.239c0-1.557.606-3.021 1.707-4.122s2.564-1.707 4.122-1.707c1.185 0 2.36.392 3.309 1.103l.713.535c-.365.234-.681.531-.952.868-1.073-.97-2.443-1.506-3.899-1.506v2c1.022 0 1.984.398 2.707 1.121l.347.347c-.024.176-.054.35-.054.532v.316c-3.021.875-5.337 3.487-5.721 6.75l-.957 8.136zm2.314-2.034 4.361 4.934c1.028 1.174 2.511 1.847 4.07 1.847s3.042-.673 4.066-1.843l4.365-4.938.515 4.375-6.098 5.336c-1.577 1.379-4.118 1.379-5.694 0l-6.099-5.336zm4.267 11.217c.238.208.497.384.761.553l-1.597 1.597-1.586-1.586 1-1h.924zm-16.836 3.756c0-.635.146-1.25.474-1.904.707-1.413 2.126-2.29 3.706-2.29l3.87.001c.214 2.366 1.182 4.512 2.659 6.209l-1.081 1.802c-.736 1.227-2.084 1.99-3.516 1.99-1.201 0-2.38-.327-3.409-.944l-2.218-1.331c-.299-.18-.485-.508-.485-.857zm7 24.394-.586-.586c-.263-.263-.414-.628-.414-1s.151-.737.414-1l1.086-1.086 2.586 2.586-1.086 1.086c-.526.526-1.474.526-2 0zm5.671-1.329-5.257-5.257 3.586-3.586 5.257 5.257c.479.479.743 1.116.743 1.793 0 1.398-1.138 2.536-2.536 2.536-.677 0-1.314-.264-1.793-.743zm21.329.743v-4h6v4zm7.564-25.636c.29.578.436 1.193.436 1.828v2.676c0 .349-.186.678-.486.857l-2.217 1.331c-1.029.617-2.209.944-3.409.944-1.129 0-2.176-.46-2.94-1.251l8.152-7.133c.17.222.324.468.464.748zm-19.519 13.267-.631-.631 16.293-16.293-1.414-1.414-16.293 16.293-.631-.631 20.168-23.049 5.328-1.184-6.572 6.572 1.414 1.414 6.572-6.572-1.184 5.328z"/></svg>