<svg xmlns="http://www.w3.org/2000/svg" viewBox="0 0 502.8 50.4"><path d="M50.4 25.3a23 23 0 01-4.3 13.9 24.6 24.6 0 01-9 7.3 28.3 28.3 0 01-7.6 2.7l-2 .2h-3.9a5 5 0 00-1 0l-2.2-.1-5.8-.3H1.4l1.3-.5.8-.3.6-.2a.5.5 0 01.2 0 10.4 10.4 0 001.5-.6 6 6 0 002.5-1.5 6.5 6.5 0 00.8-1.4 6.6 6.6 0 00.2-1.7v-36a1 1 0 010-.5A1 1 0 009 6a1 1 0 010-.4 1 1 0 010-.3 4.2 4.2 0 00-.5-.7A6.6 6.6 0 006 3.2L2.7 2l-1.3-.6h15.8l5.9-.3 4 .2a12.7 12.7 0 011.6 0h.4a4.1 4.1 0 00.6.2l1.2.2a23.4 23.4 0 017.6 2.6 23 23 0 017.7 6.6 21.2 21.2 0 014 11.2zM41 12.9a19.3 19.3 0 00-11.8-7.8l-2.8-.4h-8.2l-.4.1a4.8 4.8 0 00-2.4.5 1.8 1.8 0 00-.7.8l-.1 1.4v34.8a4.2 4.2 0 000 1 2 2 0 00.3 1 2 2 0 001 1 7.7 7.7 0 002.6.6 29.8 29.8 0 004.5.2 43.6 43.6 0 005.2-.3 13.7 13.7 0 004-1.1q4.3-2.1 5.2-2.7a17.2 17.2 0 005.3-5.4A19.3 19.3 0 0045 26.5 22.6 22.6 0 0041 12.9z" fill="#fff"/><path d="M50.4 25.3a23 23 0 01-4.3 13.9 24.6 24.6 0 01-9 7.3 28.3 28.3 0 01-7.6 2.7l-2 .2h-3.9a5 5 0 00-1 0l-2.2-.1-5.8-.3H1.4l1.3-.5.8-.3.6-.2a.5.5 0 01.2 0 10.4 10.4 0 001.5-.6 6 6 0 002.5-1.5 6.5 6.5 0 00.8-1.4 6.6 6.6 0 00.2-1.7v-36a1 1 0 010-.5A1 1 0 009 6a1 1 0 010-.4 1 1 0 010-.3 4.2 4.2 0 00-.5-.7A6.6 6.6 0 006 3.2L2.7 2l-1.3-.6h15.8l5.9-.3 4 .2a12.7 12.7 0 011.6 0h.4a4.1 4.1 0 00.6.2l1.2.2a23.4 23.4 0 017.6 2.6 23 23 0 017.7 6.6 21.2 21.2 0 014 11.2zM41 12.9a19.3 19.3 0 00-11.8-7.8l-2.8-.4h-8.2l-.4.1a4.8 4.8 0 00-2.4.5 1.8 1.8 0 00-.7.8l-.1 1.4v34.8a4.2 4.2 0 000 1 2 2 0 00.3 1 2 2 0 001 1 7.7 7.7 0 002.6.6 29.8 29.8 0 004.5.2 43.6 43.6 0 005.2-.3 13.7 13.7 0 004-1.1q4.3-2.1 5.2-2.7a17.2 17.2 0 005.3-5.4A19.3 19.3 0 0045 26.5 22.6 22.6 0 0041 12.9z" fill="none" stroke="#000" stroke-miterlimit="10" stroke-width=".5"/><g style="isolation:isolate" fill="#fff"><path d="M70.3 49H47.1l1-.3 2.3-.7a5.5 5.5 0 001.7-.9 1.4 1.4 0 00.4-.8l.1-1.2v-26a3.7 3.7 0 000-.8l-.2-.5a1.6 1.6 0 01-.2-.3 6.5 6.5 0 00-2.4-1.1l-1.7-.5-1-.4h22V23l-.7-1.7-.6-1.7a2.5 2.5 0 00-.8-1.1 5.6 5.6 0 00-1.3-.5 8.3 8.3 0 00-1.5-.2H58a4.4 4.4 0 00-.9 0 .6.6 0 00-.5.4 1.2 1.2 0 00-.2.5V30.8h8.3a2 2 0 00.8-.4l.1-.1a1.6 1.6 0 01.2-.3l.2-.1a1.6 1.6 0 00.3-.7l1-1.9V38l-.4-1-.7-2a2.7 2.7 0 00-1-1.4 3.5 3.5 0 00-1-.3 13.3 13.3 0 00-1.4-.1h-6.5v11.1a4.6 4.6 0 00.2 1.5 1.1 1.1 0 00.6.9l.6.2h10.2a1.1 1.1 0 00.4-.1q.5-.2 1-1.4a11.5 11.5 0 01.3-1A5.7 5.7 0 0170 43l.6-1.4z"/><path d="M90 23l-.7-1.8-.6-1.7a2.5 2.5 0 00-.9-1.1 4.4 4.4 0 00-1.2-.5l-1-.2h-6.1a1.3 1.3 0 00-1 .5 1.4 1.4 0 00-.4.7v11.9H86a1.4 1.4 0 00.7-.4h.1l.2-.2V30a.1.1 0 01.1-.1l.1-.1a2 2 0 00.4-.7l1-1.9V38l-.4-1-.7-2a2.7 2.7 0 00-1-1.4 3.6 3.6 0 00-1-.3A13 13 0 0084 33h-6v12.2a3.8 3.8 0 000 .4.9.9 0 010 .3 2.5 2.5 0 00.5 1 2.7 2.7 0 00.7.5l1.1.4 2.3.7 1 .4H68.8l1-.3L72 48a5.5 5.5 0 001.8-.9 3.7 3.7 0 00.3-.7 2 2 0 01.1-.6V19a3.7 3.7 0 000-.7l-.1-.5a1.6 1.6 0 01-.3-.3 6.5 6.5 0 00-2.4-1.1l-1.7-.5-1-.4h21.1z"/><path d="M111 49H87.9l1-.3 2.4-.7a5.5 5.5 0 001.7-.9 1.4 1.4 0 00.4-.8V19a3.7 3.7 0 000-.8l-.1-.5a1.6 1.6 0 01-.3-.3 6.5 6.5 0 00-2.3-1.1l-1.8-.5-1-.4h22V23l-.7-1.7-.6-1.7a2.5 2.5 0 00-.8-1.1 5.6 5.6 0 00-1.2-.5 8.3 8.3 0 00-1.6-.2h-6.2a4.4 4.4 0 00-.8 0 .6.6 0 00-.5.4 1.2 1.2 0 00-.3.5V30.8h8.3a2 2 0 00.8-.4l.2-.1a1.5 1.5 0 01.1-.3l.2-.1a1.6 1.6 0 00.4-.7l.9-1.9V38l-.4-1-.6-2a2.7 2.7 0 00-1-1.4 3.5 3.5 0 00-1-.3 13.3 13.3 0 00-1.5-.1h-6.4v11.1a4.6 4.6 0 00.2 1.5 1.1 1.1 0 00.5.9l.6.2h10.2a1.1 1.1 0 00.5-.1q.4-.2.9-1.4a11.5 11.5 0 01.3-1 5.7 5.7 0 01.4-1.2l.6-1.4z"/><path d="M147.8 16a13.4 13.4 0 00-1.7.7 6.3 6.3 0 00-1 .8 1.7 1.7 0 00-.4.8 7 7 0 00-.1 1.5l-.1 2.5V49h-2.1L137 43l-2.2-2.4L124.2 29l-7.6-7.8v23.1l.2 1.3a3 3 0 00.3 1 2.2 2.2 0 00.7.8h.2l1.6.8.4.2 1.3.4h-11.5l.8-.3 1.8-.9a2.8 2.8 0 001.4-1 4.3 4.3 0 00.2-1l.1-1.4V15.4h2.6l.8 1a6.9 6.9 0 00.6.8 6.6 6.6 0 01.4.5 7 7 0 01.8 1 1.5 1.5 0 00.3.3l.7.7 1.4 1.5 2.8 3 3.8 4 8.6 9.3 5 5.1v-22l-.2-2a2.4 2.4 0 00-.1-1 2.5 2.5 0 00-1.4-1l-.3-.1-.5-.3h-.3a3.3 3.3 0 00-.4-.2l-.2-.1a.4.4 0 00-.2 0l-.8-.5H149z"/><path d="M180.8 32.4a16 16 0 01-3 9.7 17.2 17.2 0 01-6.3 5.2 19.8 19.8 0 01-5.3 1.8l-1.4.2h-2.7a3.4 3.4 0 00-.7 0h-1.6l-4-.3h-9.3l1-.3.5-.2.4-.2a.4.4 0 01.1 0 7.4 7.4 0 001.1-.4 4.2 4.2 0 001.8-1 4.6 4.6 0 00.5-1 4.6 4.6 0 00.2-1.3V19.4a.6.6 0 01-.1-.3.7.7 0 000-.2.6.6 0 010-.3.7.7 0 01-.1-.3 2.9 2.9 0 00-.4-.5 4.6 4.6 0 00-1.7-.9l-2.3-.7-1-.4h11l4.2-.2h2.8a8.9 8.9 0 011.2.1h.2a2.9 2.9 0 00.5.1l.8.1a16.4 16.4 0 015.3 1.9 16.1 16.1 0 015.4 4.6 14.9 14.9 0 012.8 7.9zm-6.6-8.6a13.5 13.5 0 00-8.2-5.5l-2-.3H158a3.3 3.3 0 00-1.7.4 1.2 1.2 0 00-.5.6v25.3a3 3 0 000 .8 1.4 1.4 0 00.2.6 1.5 1.5 0 00.7.8 5.4 5.4 0 001.8.3 20.8 20.8 0 003.2.2 30.6 30.6 0 003.6-.2 9.6 9.6 0 002.8-.8l3.6-1.9a12 12 0 003.7-3.8 13.5 13.5 0 001.7-7 15.8 15.8 0 00-2.9-9.5z"/><path d="M198.5 49h-23.2l1-.3 2.3-.7a5.5 5.5 0 001.7-.9 1.4 1.4 0 00.4-.8l.1-1.2v-26a3.7 3.7 0 000-.8l-.2-.5a1.6 1.6 0 01-.2-.3 6.5 6.5 0 00-2.4-1.1l-1.7-.5-1-.4h22V23l-.7-1.7-.6-1.7a2.5 2.5 0 00-.8-1.1 5.6 5.6 0 00-1.3-.5 8.3 8.3 0 00-1.5-.2h-6.2a4.4 4.4 0 00-.9 0 .6.6 0 00-.4.4 1.2 1.2 0 00-.3.5V30.8h8.3a2 2 0 00.8-.4l.1-.1a1.6 1.6 0 01.2-.3l.2-.1a1.6 1.6 0 00.3-.7l1-1.9V38l-.4-1-.7-2a2.7 2.7 0 00-1-1.4 3.5 3.5 0 00-1-.3 13.3 13.3 0 00-1.4-.1h-6.5v11.1a4.6 4.6 0 00.2 1.5 1.1 1.1 0 00.6.9l.6.2H196a1.1 1.1 0 00.4-.1q.5-.2 1-1.4a11.5 11.5 0 01.3-1 5.7 5.7 0 01.4-1.2l.6-1.4z"/><path d="M226.3 49.7h-.5a6.1 6.1 0 01-1.6-.1h-.1a8.7 8.7 0 01-1.1-.3 2 2 0 01-.5-.2 3.6 3.6 0 00-.5-.2 9.1 9.1 0 01-2.4-1.7l-2.8-3-3-3.3-6.4-7h-1.2v11.4a3.8 3.8 0 000 .4.9.9 0 01.1.3 2.5 2.5 0 00.5 1 2.7 2.7 0 00.7.5l1.1.4 2.3.7 1 .4H197l1-.3 2.3-.7a4.8 4.8 0 001.7-.9 1.4 1.4 0 00.5-.9V19.4a.6.6 0 010-.3.7.7 0 000-.2.6.6 0 010-.3.7.7 0 01-.1-.3 2.9 2.9 0 00-.4-.5 9.2 9.2 0 00-2.3-1.3l-1.7-.6-1-.4h14.8a7.8 7.8 0 015.7 2.3 9.4 9.4 0 012.7 7 8.2 8.2 0 01-1.3 4.8 7.7 7.7 0 01-3.2 2.6 16 16 0 01-3.2 1.3l-.9.1 4.9 5.6 2 2.3 1 1.1.2.3.7.7a17.3 17.3 0 002 2.2 13.3 13.3 0 001.8 1.6 16 16 0 002.4 1.4l1.2.6zm-11.6-30.3a6 6 0 00-4.2-1.9h-1a7.2 7.2 0 00-.8 0 2.2 2.2 0 00-.5.1 4 4 0 00-.8 0 1.6 1.6 0 00-.6.4.8.8 0 00-.5.5 7.5 7.5 0 000 1V32h2a8.7 8.7 0 006-2.2 7.1 7.1 0 002.4-5.6 6.6 6.6 0 00-2-4.8z"/><path d="M242 47.1a11.2 11.2 0 01-7.5 2.5 14.7 14.7 0 01-3.2-.3 13.5 13.5 0 01-1.8-.5h-.4l-2-.6-.1-8.6 1.4 4a4.5 4.5 0 002.4 2.7 10 10 0 003.4.9h.9a6.5 6.5 0 004.5-1.7 5.6 5.6 0 002-4.4 5.1 5.1 0 00-1-3.3 10.7 10.7 0 00-2.8-2.2l-3.5-2-4-2.2a8.7 8.7 0 01-3-2.8 7.9 7.9 0 01-1.1-4.3 9 9 0 013-7 10.3 10.3 0 017-2.4 28 28 0 013.2.2h.2a18.8 18.8 0 012.4.5l1 .3v8.7l-1.8-4.6a4 4 0 00-1.9-2.2 7 7 0 00-1.4-.4 10.6 10.6 0 00-1.9-.2 7.2 7.2 0 00-2.5.5 6.2 6.2 0 00-2.2 1.4 6 6 0 00-2 4.6 5.4 5.4 0 002.3 4l1 .9.4.2a11.5 11.5 0 001.8 1l.1.1a1.2 1.2 0 01.3.1l4.6 2.6a12 12 0 013.5 3 7.2 7.2 0 011.5 4.6 8.8 8.8 0 01-2.8 7z"/></g><g style="isolation:isolate" fill="none" stroke="#000" stroke-miterlimit="10" stroke-width=".5"><path d="M70.3 49H47.1l1-.3 2.3-.7a5.5 5.5 0 001.7-.9 1.4 1.4 0 00.4-.8l.1-1.2v-26a3.7 3.7 0 000-.8l-.2-.5a1.6 1.6 0 01-.2-.3 6.5 6.5 0 00-2.4-1.1l-1.7-.5-1-.4h22V23l-.7-1.7-.6-1.7a2.5 2.5 0 00-.8-1.1 5.6 5.6 0 00-1.3-.5 8.3 8.3 0 00-1.5-.2H58a4.4 4.4 0 00-.9 0 .6.6 0 00-.5.4 1.2 1.2 0 00-.2.5V30.8h8.3a2 2 0 00.8-.4l.1-.1a1.6 1.6 0 01.2-.3l.2-.1a1.6 1.6 0 00.3-.7l1-1.9V38l-.4-1-.7-2a2.7 2.7 0 00-1-1.4 3.5 3.5 0 00-1-.3 13.3 13.3 0 00-1.4-.1h-6.5v11.1a4.6 4.6 0 00.2 1.5 1.1 1.1 0 00.6.9l.6.2h10.2a1.1 1.1 0 00.4-.1q.5-.2 1-1.4a11.5 11.5 0 01.3-1A5.7 5.7 0 0170 43l.6-1.4z"/><path d="M90 23l-.7-1.8-.6-1.7a2.5 2.5 0 00-.9-1.1 4.4 4.4 0 00-1.2-.5l-1-.2h-6.1a1.3 1.3 0 00-1 .5 1.4 1.4 0 00-.4.7v11.9H86a1.4 1.4 0 00.7-.4h.1l.2-.2V30a.1.1 0 01.1-.1l.1-.1a.1.1 0 010 0 2 2 0 00.4-.7l1-1.9V38l-.4-1-.7-2a2.7 2.7 0 00-1-1.4 3.6 3.6 0 00-1-.3A13 13 0 0084 33h-6v12.2a3.8 3.8 0 000 .4.9.9 0 010 .3 2.5 2.5 0 00.5 1 2.7 2.7 0 00.7.5l1.1.4 2.3.7 1 .4H68.8l1-.3L72 48a5.5 5.5 0 001.8-.9 3.7 3.7 0 00.3-.7 2 2 0 01.1-.6V19a3.7 3.7 0 000-.7l-.1-.5a1.6 1.6 0 01-.3-.3 6.5 6.5 0 00-2.4-1.1l-1.7-.5-1-.4h21.1z"/><path d="M111 49H87.9l1-.3 2.4-.7a5.5 5.5 0 001.7-.9 1.4 1.4 0 00.4-.8V19a3.7 3.7 0 000-.8l-.1-.5a1.6 1.6 0 01-.3-.3 6.5 6.5 0 00-2.3-1.1l-1.8-.5-1-.4h22V23l-.7-1.7-.6-1.7a2.5 2.5 0 00-.8-1.1 5.6 5.6 0 00-1.2-.5 8.3 8.3 0 00-1.6-.2h-6.2a4.4 4.4 0 00-.8 0 .6.6 0 00-.5.4 1.2 1.2 0 00-.3.5V30.8h8.3a2 2 0 00.8-.4l.2-.1a1.5 1.5 0 01.1-.3l.2-.1a1.6 1.6 0 00.4-.7l.9-1.9V38l-.4-1-.6-2a2.7 2.7 0 00-1-1.4 3.5 3.5 0 00-1-.3 13.3 13.3 0 00-1.5-.1h-6.4v11.1a4.6 4.6 0 00.2 1.5 1.1 1.1 0 00.5.9l.6.2h10.2a1.1 1.1 0 00.5-.1q.4-.2.9-1.4a11.5 11.5 0 01.3-1 5.7 5.7 0 01.4-1.2l.6-1.4z"/><path d="M147.8 16a13.4 13.4 0 00-1.7.7 6.3 6.3 0 00-1 .8 1.7 1.7 0 00-.4.8 7 7 0 00-.1 1.5l-.1 2.5V49h-2.1L137 43l-2.2-2.4L124.2 29l-7.6-7.8v23.1l.2 1.3a3 3 0 00.3 1 2.2 2.2 0 00.7.8h.2l1.6.8.4.2 1.3.4h-11.5l.8-.3 1.8-.9a2.8 2.8 0 001.4-1 4.3 4.3 0 00.2-1h0l.1-1.4V15.4h2.6l.8 1a6.9 6.9 0 00.6.8 6.6 6.6 0 01.4.5 7 7 0 01.8 1h0a1.5 1.5 0 00.3.3l.7.7 1.4 1.5 2.8 3 3.8 4 8.6 9.3 5 5.1v-22l-.2-2a2.4 2.4 0 00-.1-1 2.5 2.5 0 00-1.4-1l-.3-.1-.5-.3h-.3a3.3 3.3 0 00-.4-.2l-.2-.1a.1.1 0 000 0 .4.4 0 00-.2 0l-.8-.5H149z"/><path d="M180.8 32.4a16 16 0 01-3 9.7 17.2 17.2 0 01-6.3 5.2 19.8 19.8 0 01-5.3 1.8l-1.4.2h-2.7a3.4 3.4 0 00-.7 0h-1.6l-4-.3h-9.3l1-.3.5-.2.4-.2a.4.4 0 01.1 0 7.4 7.4 0 001.1-.4 4.2 4.2 0 001.8-1 4.6 4.6 0 00.5-1 4.6 4.6 0 00.2-1.3V19.4a.6.6 0 01-.1-.3.7.7 0 000-.2.6.6 0 010-.3.7.7 0 01-.1-.3 2.9 2.9 0 00-.4-.5 4.6 4.6 0 00-1.7-.9l-2.3-.7-1-.4h11l4.2-.2h2.8a8.9 8.9 0 011.2.1h.2a2.9 2.9 0 00.5.1l.8.1a16.4 16.4 0 015.3 1.9 16.1 16.1 0 015.4 4.6 14.9 14.9 0 012.8 7.9zm-6.6-8.6a13.5 13.5 0 00-8.2-5.5l-2-.3H158a3.3 3.3 0 00-1.7.4 1.2 1.2 0 00-.5.6v25.3a3 3 0 000 .8 1.4 1.4 0 00.2.6 1.5 1.5 0 00.7.8 5.4 5.4 0 001.8.3 20.8 20.8 0 003.2.2 30.6 30.6 0 003.6-.2 9.6 9.6 0 002.8-.8l3.6-1.9a12 12 0 003.7-3.8 13.5 13.5 0 001.7-7 15.8 15.8 0 00-2.9-9.5z"/><path d="M198.5 49h-23.2l1-.3 2.3-.7a5.5 5.5 0 001.7-.9 1.4 1.4 0 00.4-.8l.1-1.2v-26a3.7 3.7 0 000-.8l-.2-.5a1.6 1.6 0 01-.2-.3 6.5 6.5 0 00-2.4-1.1l-1.7-.5-1-.4h22V23l-.7-1.7-.6-1.7a2.5 2.5 0 00-.8-1.1 5.6 5.6 0 00-1.3-.5 8.3 8.3 0 00-1.5-.2h-6.2a4.4 4.4 0 00-.9 0 .6.6 0 00-.4.4 1.2 1.2 0 00-.3.5V30.8h8.3a2 2 0 00.8-.4l.1-.1a1.6 1.6 0 01.2-.3l.2-.1a1.6 1.6 0 00.3-.7l1-1.9V38l-.4-1-.7-2a2.7 2.7 0 00-1-1.4 3.5 3.5 0 00-1-.3 13.3 13.3 0 00-1.4-.1h-6.5v11.1a4.6 4.6 0 00.2 1.5 1.1 1.1 0 00.6.9l.6.2H196a1.1 1.1 0 00.4-.1q.5-.2 1-1.4a11.5 11.5 0 01.3-1 5.7 5.7 0 01.4-1.2l.6-1.4z"/><path d="M226.3 49.7h-.5a6.1 6.1 0 01-1.6-.1h-.1a8.7 8.7 0 01-1.1-.3 2 2 0 01-.5-.2 3.6 3.6 0 00-.5-.2 9.1 9.1 0 01-2.4-1.7l-2.8-3-3-3.3-6.4-7h-1.2v11.4a3.8 3.8 0 000 .4.9.9 0 01.1.3 2.5 2.5 0 00.5 1 2.7 2.7 0 00.7.5l1.1.4 2.3.7 1 .4H197l1-.3 2.3-.7a4.8 4.8 0 001.7-.9 1.4 1.4 0 00.5-.9V19.4a.6.6 0 010-.3.7.7 0 000-.2.6.6 0 010-.3.7.7 0 01-.1-.3 2.9 2.9 0 00-.4-.5 9.2 9.2 0 00-2.3-1.3l-1.7-.6-1-.4h14.8a7.8 7.8 0 015.7 2.3 9.4 9.4 0 012.7 7 8.2 8.2 0 01-1.3 4.8 7.7 7.7 0 01-3.2 2.6 16 16 0 01-3.2 1.3l-.9.1 4.9 5.6 2 2.3 1 1.1.2.3.7.7a17.3 17.3 0 002 2.2 13.3 13.3 0 001.8 1.6 16 16 0 002.4 1.4l1.2.6zm-11.6-30.3a6 6 0 00-4.2-1.9h-1a7.2 7.2 0 00-.8 0 2.2 2.2 0 00-.5.1 4 4 0 00-.8 0 1.6 1.6 0 00-.6.4.8.8 0 00-.5.5 7.5 7.5 0 000 1V32h2a8.7 8.7 0 006-2.2 7.1 7.1 0 002.4-5.6 6.6 6.6 0 00-2-4.8z"/><path d="M242 47.1a11.2 11.2 0 01-7.5 2.5 14.7 14.7 0 01-3.2-.3 13.5 13.5 0 01-1.8-.5h-.4l-2-.6-.1-8.6 1.4 4a4.5 4.5 0 002.4 2.7 10 10 0 003.4.9h.9a6.5 6.5 0 004.5-1.7 5.6 5.6 0 002-4.4 5.1 5.1 0 00-1-3.3 10.7 10.7 0 00-2.8-2.2l-3.5-2-4-2.2a8.7 8.7 0 01-3-2.8 7.9 7.9 0 01-1.1-4.3 9 9 0 013-7 10.3 10.3 0 017-2.4 28 28 0 013.2.2h.2a18.8 18.8 0 012.4.5l1 .3v8.7l-1.8-4.6a4 4 0 00-1.9-2.2 7 7 0 00-1.4-.4 10.6 10.6 0 00-1.9-.2 7.2 7.2 0 00-2.5.5 6.2 6.2 0 00-2.2 1.4 6 6 0 00-2 4.6 5.4 5.4 0 002.3 4l1 .9.4.2a11.5 11.5 0 001.8 1l.1.1a1.2 1.2 0 01.3.1l4.6 2.6a12 12 0 013.5 3 7.2 7.2 0 011.5 4.6 8.8 8.8 0 01-2.8 7z"/></g><g style="isolation:isolate" fill="#fff"><path d="M291.5 45.1a17.8 17.8 0 01-12.7 4.8 15.8 15.8 0 01-11.7-5.1 17.5 17.5 0 01-4.8-12.4 16.9 16.9 0 014.9-12.1 15.8 15.8 0 0111.6-5 18.2 18.2 0 0112.6 4.4 16.3 16.3 0 015.4 12.7 16.6 16.6 0 01-5.3 12.7zM289 22.4a13.3 13.3 0 00-10.2-4.7 12 12 0 00-5.2 1.2 11.6 11.6 0 00-4.2 3.3 15.1 15.1 0 00-3.5 10.1 16.9 16.9 0 001 5.5 16.5 16.5 0 002.7 4.8q4 4.8 9.4 4.8a13.9 13.9 0 0014.2-14.2 15.3 15.3 0 00-4.2-10.8z"/><path d="M312.4 23l-.7-1.8-.6-1.7a2.5 2.5 0 00-.8-1.1 4.4 4.4 0 00-1.2-.5l-1-.2H301.9a1.3 1.3 0 00-1 .5 1.4 1.4 0 00-.3.7v11.9h7.8a1.4 1.4 0 00.8-.4l.3-.2V30a.1.1 0 01.1-.1l.1-.1a2 2 0 00.4-.7l.9-1.9V38l-.4-1-.6-2a2.7 2.7 0 00-1-1.4 3.6 3.6 0 00-1-.3 13 13 0 00-1.4-.1h-6v12.2a3.9 3.9 0 000 .4.9.9 0 010 .3 2.5 2.5 0 00.5 1 2.7 2.7 0 00.7.5 12.2 12.2 0 001.1.4l2.3.7 1 .4h-15l1-.3 2.4-.7a5.5 5.5 0 001.8-.9 3.7 3.7 0 00.3-.7 2 2 0 01.1-.6V19a3.6 3.6 0 000-.7l-.2-.5a1.6 1.6 0 01-.2-.3 6.5 6.5 0 00-2.4-1.1l-1.8-.5-1-.4h21.2z"/></g><g style="isolation:isolate" fill="none" stroke="#000" stroke-miterlimit="10" stroke-width=".5"><path d="M291.5 45.1a17.8 17.8 0 01-12.7 4.8 15.8 15.8 0 01-11.7-5.1 17.5 17.5 0 01-4.8-12.4 16.9 16.9 0 014.9-12.1 15.8 15.8 0 0111.6-5 18.2 18.2 0 0112.6 4.4 16.3 16.3 0 015.4 12.7 16.6 16.6 0 01-5.3 12.7zM289 22.4a13.3 13.3 0 00-10.2-4.7 12 12 0 00-5.2 1.2 11.6 11.6 0 00-4.2 3.3 15.1 15.1 0 00-3.5 10.1 16.9 16.9 0 001 5.5 16.5 16.5 0 002.7 4.8q4 4.8 9.4 4.8a13.9 13.9 0 0014.2-14.2 15.3 15.3 0 00-4.2-10.8z"/><path d="M312.4 23l-.7-1.8-.6-1.7a2.5 2.5 0 00-.8-1.1 4.4 4.4 0 00-1.2-.5l-1-.2H301.9a1.3 1.3 0 00-1 .5 1.4 1.4 0 00-.3.7v11.9h7.8a1.4 1.4 0 00.8-.4h0l.3-.2V30a.1.1 0 01.1-.1l.1-.1a.1.1 0 010 0 2 2 0 00.4-.7l.9-1.9V38l-.4-1-.6-2a2.7 2.7 0 00-1-1.4 3.6 3.6 0 00-1-.3 13 13 0 00-1.4-.1h-6v12.2a3.9 3.9 0 000 .4.9.9 0 010 .3 2.5 2.5 0 00.5 1 2.7 2.7 0 00.7.5 12.2 12.2 0 001.1.4l2.3.7 1 .4h-15l1-.3 2.4-.7a5.5 5.5 0 001.8-.9 3.7 3.7 0 00.3-.7 2 2 0 01.1-.6V19a3.6 3.6 0 000-.7l-.2-.5a1.6 1.6 0 01-.2-.3 6.5 6.5 0 00-2.4-1.1l-1.8-.5-1-.4h21.2z"/></g><g style="isolation:isolate"><path d="M351.8 46.3q-4.1 3.5-10.8 3.5a21 21 0 01-4.5-.4 19.5 19.5 0 01-2.6-.6l-.6-.2-2.7-.7-.3-12.3 2 5.8a6.4 6.4 0 003.5 3.7 14.2 14.2 0 004.8 1.3h1.3a9.3 9.3 0 006.5-2.4 8 8 0 002.8-6.3 7.3 7.3 0 00-1.5-4.7 15.2 15.2 0 00-3.9-3.1l-5-2.8-5.9-3.3a12.5 12.5 0 01-4.1-4 11.3 11.3 0 01-1.6-6 12.8 12.8 0 014.3-10 14.6 14.6 0 0110-3.6 40 40 0 014.5.4h.3a26.7 26.7 0 013.5.7l1.3.4.1 12.5-2.6-6.7a5.6 5.6 0 00-2.7-3 9.9 9.9 0 00-2-.7 15.2 15.2 0 00-2.7-.2 10.3 10.3 0 00-3.7.6 8.8 8.8 0 00-3 2 8.5 8.5 0 00-2.8 6.6q0 3.2 3.1 5.9l1.6 1 .6.5a16.4 16.4 0 002.5 1.4l.2.1a1.7 1.7 0 01.4.2l6.5 3.6a17.1 17.1 0 015 4.5 10.2 10.2 0 012.1 6.4q0 6.4-4 10z" fill="#fff"/><path d="M351.8 46.3q-4.1 3.5-10.8 3.5a21 21 0 01-4.5-.4 19.5 19.5 0 01-2.6-.6l-.6-.2-2.7-.7-.3-12.3 2 5.8a6.4 6.4 0 003.5 3.7 14.2 14.2 0 004.8 1.3h1.3a9.3 9.3 0 006.5-2.4 8 8 0 002.8-6.3 7.3 7.3 0 00-1.5-4.7 15.2 15.2 0 00-3.9-3.1l-5-2.8-5.9-3.3a12.5 12.5 0 01-4.1-4 11.3 11.3 0 01-1.6-6 12.8 12.8 0 014.3-10 14.6 14.6 0 0110-3.6 40 40 0 014.5.4h.3a26.7 26.7 0 013.5.7l1.3.4.1 12.5-2.6-6.7a5.6 5.6 0 00-2.7-3 9.9 9.9 0 00-2-.7 15.2 15.2 0 00-2.7-.2 10.3 10.3 0 00-3.7.6 8.8 8.8 0 00-3 2 8.5 8.5 0 00-2.8 6.6q0 3.2 3.1 5.9l1.6 1 .6.5a16.4 16.4 0 002.5 1.4l.2.1a1.7 1.7 0 01.4.2l6.5 3.6a17.1 17.1 0 015 4.5 10.2 10.2 0 012.1 6.4q0 6.4-4 10z" fill="none" stroke="#000" stroke-miterlimit="10" stroke-width=".5"/></g><g style="isolation:isolate" fill="#fff"><path d="M384 50.2h-.3a12.5 12.5 0 01-1.4 0 13.5 13.5 0 01-1.4-.3h-.2a6.2 6.2 0 01-2.5-1 4 4 0 01-.5-.2l-2.1-1.5a14.3 14.3 0 01-1.5-1.1l-.4-.4-.4-.5a3 3 0 01-.5-.4l-11.2-12.4v13a3.9 3.9 0 000 .3.9.9 0 01.1.3 2.5 2.5 0 00.5 1 2.7 2.7 0 00.7.5 12.2 12.2 0 001.1.4l2.3.7 1 .4h-15l1-.3 2.4-.7a5.5 5.5 0 001.8-.9 3.7 3.7 0 00.3-.7 2 2 0 01.1-.6V19.3a6.5 6.5 0 000-.9v-.1a2.2 2.2 0 00-.4-.8 4.6 4.6 0 00-1.2-.7q-.3 0-.7-.3a1.9 1.9 0 00-.2 0 1.7 1.7 0 01-.2-.1l-.7-.2-.5-.2-.6-.1-1-.4h14.9l-1 .4-1.7.6a6.3 6.3 0 00-2.4 1 4 4 0 00-.5 1V31l7.5-7.3 1-1 .4-.4.4-.4 1.6-1.6q1.5-1.6 1.5-2.2a.3.3 0 00-.1-.2 2.6 2.6 0 00-1.3-1l-1.3-.4-1.4-.6h12.7l-1.3.6-1.3.6a8.7 8.7 0 00-1.5.7 18 18 0 00-3 2.6l-3.7 3.6-7.2 7 8.8 9.7 3.9 4.2 1 1 .5.4 1.6 1.2a8.7 8.7 0 002.4 1.2l1.6.6 1.6.6z"/><path d="M412.5 16l-1.2.4-.8.3a7.5 7.5 0 00-2 1.2l-.2.1-.1.3a1.4 1.4 0 00-.2.2l-.2.3a2.5 2.5 0 01-.3.5.5.5 0 00-.1.2l-.6 1.1-6.6 11.4v13.5a2.7 2.7 0 000 .4v.2a1.9 1.9 0 00.6 1 3.5 3.5 0 001.8 1 18.6 18.6 0 012.3.6l1 .5H391l1-.4 2.3-.7a5.5 5.5 0 001.7-.8 2.6 2.6 0 00.5-1 2 2 0 01.1-.5V33.3l-2.9-5.6a40.4 40.4 0 00-2.2-3.9l-1.1-1.7a17 17 0 00-1-1.5 2 2 0 00-.3-.3 12.3 12.3 0 00-2.3-2.4 13.6 13.6 0 00-2.6-1.5l-1.7-.8 1.5-.3h.7a8.8 8.8 0 013 .5 11.3 11.3 0 011.9.8 8.1 8.1 0 011.4 1 21.6 21.6 0 013 3.7l.8 1.4.2.3.6 1 .6 1 2.6 4.9 5.1-9.1a19 19 0 00.8-1.8 2.5 2.5 0 00.4-1 .1.1 0 00-.1-.1q-.2-.7-3.3-2l-.7-.2h12.5z"/><path d="M441.4 49.7h-.5a6.1 6.1 0 01-1.6-.1h-.2a8.7 8.7 0 01-1-.3 2 2 0 01-.5-.2 3.6 3.6 0 00-.5-.2 9.1 9.1 0 01-2.4-1.7q-1.7-1.6-2.9-3l-3-3.3-6.3-7h-1.2v11.4a3.9 3.9 0 000 .4.9.9 0 01.1.3 2.5 2.5 0 00.5 1 2.7 2.7 0 00.7.5 12.2 12.2 0 001.1.4l2.3.7 1 .4h-15l1-.3 2.4-.7a4.8 4.8 0 001.7-.9 1.4 1.4 0 00.4-.9l.1-1.1V19.4a.6.6 0 010-.3.7.7 0 000-.2.6.6 0 01-.1-.3.7.7 0 010-.3 2.9 2.9 0 00-.4-.5 9.1 9.1 0 00-2.3-1.3l-1.8-.6-.9-.4H427a7.8 7.8 0 015.7 2.3 9.5 9.5 0 012.7 7 8.2 8.2 0 01-1.4 4.8 7.7 7.7 0 01-3.1 2.6 16 16 0 01-3.2 1.3l-.9.1 4.9 5.6 2 2.3 1 1.1.2.3.7.7a17.3 17.3 0 002 2.2 13.2 13.2 0 001.8 1.6 16 16 0 002.4 1.4l1.1.6zm-11.6-30.3a6 6 0 00-4.2-1.9h-1a7.2 7.2 0 00-.8 0 2.2 2.2 0 00-.5.1 4 4 0 00-.9 0 1.6 1.6 0 00-.6.4.8.8 0 00-.4.5 7.6 7.6 0 000 1V32h2a8.7 8.7 0 006-2.2 7.1 7.1 0 002.4-5.6 6.6 6.6 0 00-2-4.8z"/><path d="M441.8 49l1-.3 2.4-.7a5.5 5.5 0 001.7-.9 3.6 3.6 0 00.3-.7 2 2 0 01.2-.6V19.2a5.8 5.8 0 000-1 1.4 1.4 0 00-.4-.7 8.8 8.8 0 00-2.4-1.1l-1.8-.5-1-.4h14.9l-1 .4-1.6.6a6.3 6.3 0 00-2.4 1 3.9 3.9 0 00-.5 1L451 20v25.3a4 4 0 000 .4.9.9 0 010 .3 2.5 2.5 0 00.5 1 2.7 2.7 0 00.7.5l1.2.4 2.2.7 1 .4z"/><path d="M488 49l1.5-.6 1.7-.6a2.5 2.5 0 001.3-.9 2.9 2.9 0 00.3-1 3.9 3.9 0 00.2-1v-.8l-.2-.9-1.8-20.5-3 5.5-4.2 7.8-3.8 7.3-1.3 2.8-1.5 3.3-2.5-4.7-1.4-2.6-4.3-8-1.6-2.9v-.1a1.4 1.4 0 00-.2-.2l-2.2-3.7-2-3.4-1.2 17.3-.1 1.4-.1 1.8v.7a2.1 2.1 0 000 .4v.4a4.3 4.3 0 00.5 1.2 2 2 0 001.2.8l1.8.7 1.2.5H455l.7-.3 2-.9a3.3 3.3 0 001.3-1 8.6 8.6 0 00.4-2.1 2.1 2.1 0 010-.4l.2-1.2v-1.7l.6-5a50.9 50.9 0 00.3-5.1l.1-4.2.3-4.4v-2-2.3l.1-2.9h2.6l.6 1.9.1.4a2.2 2.2 0 01.3.6.2.2 0 010 .2l.4.9 4.3 8.3 5.2 9.3q2.5 4.2 3.4 5.4l3-5.3 4-7.8 4.4-8.4 1.3-2.7 1.2-2.8h2.4l.1 3.4a14.5 14.5 0 00.2 1.8 2.7 2.7 0 000 .4 1.5 1.5 0 000 .4 4.8 4.8 0 00.1.5v.2l2 21.7.2 1.7.1.6a2.2 2.2 0 01.3.6q.3.5 2 1.2l1.6.6 1 .4z"/></g><g style="isolation:isolate" fill="none" stroke="#000" stroke-miterlimit="10" stroke-width=".5"><path d="M384 50.2h-.3a12.5 12.5 0 01-1.4 0 13.5 13.5 0 01-1.4-.3h-.2a6.2 6.2 0 01-2.5-1 4 4 0 01-.5-.2l-2.1-1.5a14.3 14.3 0 01-1.5-1.1l-.4-.4-.4-.5a3 3 0 01-.5-.4l-11.2-12.4v13a3.9 3.9 0 000 .3.9.9 0 01.1.3 2.5 2.5 0 00.5 1 2.7 2.7 0 00.7.5 12.2 12.2 0 001.1.4l2.3.7 1 .4h-15l1-.3 2.4-.7a5.5 5.5 0 001.8-.9 3.7 3.7 0 00.3-.7 2 2 0 01.1-.6V19.3a6.5 6.5 0 000-.9v-.1a2.2 2.2 0 00-.4-.8 4.6 4.6 0 00-1.2-.7q-.3 0-.7-.3a1.9 1.9 0 00-.2 0 1.7 1.7 0 01-.2-.1l-.7-.2-.5-.2-.6-.1-1-.4h14.9l-1 .4-1.7.6a6.3 6.3 0 00-2.4 1 4 4 0 00-.5 1V31l7.5-7.3 1-1 .4-.4.4-.4 1.6-1.6q1.5-1.6 1.5-2.2a.3.3 0 00-.1-.2 2.6 2.6 0 00-1.3-1l-1.3-.4-1.4-.6h12.7l-1.3.6-1.3.6a8.7 8.7 0 00-1.5.7 18 18 0 00-3 2.6l-3.7 3.6-7.2 7 8.8 9.7 3.9 4.2 1 1 .5.4 1.6 1.2a8.7 8.7 0 002.4 1.2l1.6.6 1.6.6z"/><path d="M412.5 16l-1.2.4h0l-.8.3a7.5 7.5 0 00-2 1.2l-.2.1-.1.3a1.4 1.4 0 00-.2.2l-.2.3h0a2.5 2.5 0 01-.3.5.5.5 0 00-.1.2l-.6 1.1-6.6 11.4v13.5a2.7 2.7 0 000 .4v.2h0a1.9 1.9 0 00.6 1 3.5 3.5 0 001.8 1 18.6 18.6 0 012.3.6l1 .5H391l1-.4 2.3-.7a5.5 5.5 0 001.7-.8 2.6 2.6 0 00.5-1 2 2 0 01.1-.5V33.3l-2.9-5.6a40.4 40.4 0 00-2.2-3.9l-1.1-1.7a17 17 0 00-1-1.5 2 2 0 00-.3-.3 12.3 12.3 0 00-2.3-2.4 13.6 13.6 0 00-2.6-1.5l-1.7-.8 1.5-.3h.7a8.8 8.8 0 013 .5 11.3 11.3 0 011.9.8 8.1 8.1 0 011.4 1 21.6 21.6 0 013 3.7l.8 1.4.2.3.6 1 .6 1 2.6 4.9 5.1-9.1a19 19 0 00.8-1.8 2.5 2.5 0 00.4-1 .1.1 0 00-.1-.1q-.2-.7-3.3-2l-.7-.2h12.5z"/><path d="M441.4 49.7h-.5a6.1 6.1 0 01-1.6-.1h-.2a8.7 8.7 0 01-1-.3 2 2 0 01-.5-.2 3.6 3.6 0 00-.5-.2 9.1 9.1 0 01-2.4-1.7q-1.7-1.6-2.9-3l-3-3.3-6.3-7h-1.2v11.4a3.9 3.9 0 000 .4.9.9 0 01.1.3 2.5 2.5 0 00.5 1 2.7 2.7 0 00.7.5 12.2 12.2 0 001.1.4l2.3.7 1 .4h-15l1-.3 2.4-.7a4.8 4.8 0 001.7-.9 1.4 1.4 0 00.4-.9l.1-1.1V19.4a.6.6 0 010-.3.7.7 0 000-.2.6.6 0 01-.1-.3.7.7 0 010-.3 2.9 2.9 0 00-.4-.5 9.1 9.1 0 00-2.3-1.3l-1.8-.6-.9-.4H427a7.8 7.8 0 015.7 2.3 9.5 9.5 0 012.7 7 8.2 8.2 0 01-1.4 4.8 7.7 7.7 0 01-3.1 2.6 16 16 0 01-3.2 1.3l-.9.1 4.9 5.6 2 2.3 1 1.1.2.3.7.7a17.3 17.3 0 002 2.2 13.2 13.2 0 001.8 1.6 16 16 0 002.4 1.4l1.1.6zm-11.6-30.3a6 6 0 00-4.2-1.9h-1a7.2 7.2 0 00-.8 0 2.2 2.2 0 00-.5.1 4 4 0 00-.9 0 1.6 1.6 0 00-.6.4.8.8 0 00-.4.5 7.6 7.6 0 000 1V32h2a8.7 8.7 0 006-2.2 7.1 7.1 0 002.4-5.6 6.6 6.6 0 00-2-4.8z"/><path d="M441.8 49l1-.3 2.4-.7a5.5 5.5 0 001.7-.9 3.6 3.6 0 00.3-.7 2 2 0 01.2-.6V19.2a5.8 5.8 0 000-1 1.4 1.4 0 00-.4-.7 8.8 8.8 0 00-2.4-1.1l-1.8-.5-1-.4h14.9l-1 .4-1.6.6a6.3 6.3 0 00-2.4 1 3.9 3.9 0 00-.5 1L451 20v25.3a4 4 0 000 .4.9.9 0 010 .3 2.5 2.5 0 00.5 1 2.7 2.7 0 00.7.5l1.2.4 2.2.7 1 .4z"/><path d="M488 49l1.5-.6 1.7-.6a2.5 2.5 0 001.3-.9 2.9 2.9 0 00.3-1 3.9 3.9 0 00.2-1v-.8l-.2-.9-1.8-20.5-3 5.5-4.2 7.8-3.8 7.3-1.3 2.8-1.5 3.3-2.5-4.7-1.4-2.6-4.3-8-1.6-2.9v-.1a1.4 1.4 0 00-.2-.2l-2.2-3.7-2-3.4-1.2 17.3-.1 1.4-.1 1.8v.7a2.1 2.1 0 000 .4v.4a4.3 4.3 0 00.5 1.2 2 2 0 001.2.8l1.8.7 1.2.5H455l.7-.3 2-.9a3.3 3.3 0 001.3-1 8.6 8.6 0 00.4-2.1 2.1 2.1 0 010-.4l.2-1.2v-1.7l.6-5a50.9 50.9 0 00.3-5.1l.1-4.2.3-4.4v-2-2.3l.1-2.9h2.6l.6 1.9.1.4a2.2 2.2 0 01.3.6h0a.2.2 0 010 .2l.4.9 4.3 8.3 5.2 9.3q2.5 4.2 3.4 5.4l3-5.3 4-7.8 4.4-8.4 1.3-2.7 1.2-2.8h2.4l.1 3.4a14.5 14.5 0 00.2 1.8 2.7 2.7 0 000 .4 1.5 1.5 0 000 .4 4.8 4.8 0 00.1.5v.2l2 21.7.2 1.7.1.6a2.2 2.2 0 01.3.6q.3.5 2 1.2l1.6.6 1 .4z"/></g></svg>