<svg height="512pt" viewBox="0 0 512 512" width="512pt" xmlns="http://www.w3.org/2000/svg"><path d="m507.605469 198.394531c-2.8125-2.8125-6.625-4.394531-10.605469-4.394531h-297.921875c-8.28125 0-15 6.714844-15 15v13h-49.078125c-8.285156 0-15 6.714844-15 15v11h-105c-5.53125 0-10.613281 3.046875-13.226562 7.921875-2.609376 4.878906-2.324219 10.796875.746093 15.398437l3.398438 5.101563c28.183593 42.277344 71.691406 65.5625 122.503906 65.5625l55.65625.015625s-.363281 19.546875-.519531 21.597656c-.898438 11.777344-2.554688 33.265625-24.121094 54.417969h-23.011719c-8.285156 0-15 6.71875-15 15v63.984375c0 8.285156 6.714844 15 15 15h265.523438c8.285156 0 15-6.714844 15-15v-63.980469c0-8.285156-6.714844-15-15-15h-21.25c-15.90625-16.652343-24.269531-37.121093-23.636719-58.128906v-.003906c1.480469-49.574219 53.023438-89.90625 114.902344-89.90625 7.589844 0 15.210937.605469 22.648437 1.804687 4.339844.699219 8.769531-.542968 12.113281-3.390625 3.34375-2.851562 5.273438-7.023437 5.273438-11.417969v-47.976562c0-3.976562-1.582031-7.792969-4.394531-10.605469zm-387.605469 79.605469v33.703125c-28.976562-1.886719-54.601562-13.566406-74.375-33.703125zm36.109375 34c-.117187-.003906-.230469-.019531-.347656-.019531h-5.761719v-59.980469h34.078125v60zm230.839844 170h-235.523438v-33.980469h235.523438zm-189.257813-63.980469c10.347656-16.742187 13.65625-32.535156 14.984375-43.582031h115.078125c1.8125 15.296875 7.023438 30.046875 15.28125 43.582031zm284.308594-177.75c-3.34375-.195312-6.691406-.292969-10.035156-.292969-37.554688 0-73.140625 12.011719-100.210938 33.824219-23.636718 19.046875-38.644531 43.726563-43.230468 70.636719h-114.445313v-120.4375h267.921875zm0 0"/><path d="m13.382812 106.738281c7.957032 7.410157 17.710938 11.269531 28.382813 11.269531 1.070313 0 2.148437-.039062 3.234375-.117187 41.351562-2.960937 142.996094-10.265625 142.996094-10.265625 1.054687 3.945312 2.183594 7.839844 3.304687 11.695312 1.902344 6.535157 3.703125 12.710938 5.035157 18.859376 1.496093 6.898437 7.597656 11.820312 14.65625 11.820312h60.003906c7.0625 0 13.167968-4.925781 14.660156-11.828125 1.332031-6.15625 3.136719-12.347656 5.042969-18.902344 4.082031-14.003906 8.300781-28.488281 8.300781-44.257812 0-15.777344-4.222656-30.277344-8.304688-44.300781-1.90625-6.546876-3.707031-12.730469-5.039062-18.886719-1.496094-6.902344-7.597656-11.824219-14.660156-11.824219h-60c-7.0625 0-13.167969 4.925781-14.660156 11.828125-1.335938 6.164063-3.136719 12.355469-5.042969 18.914063-1.117188 3.839843-2.238281 7.71875-3.289063 11.644531-45.167968-3.238281-88.851562-6.378907-134.070312-9.625l-8.921875-.644531c-11.929688-.847657-22.867188 3-31.625 11.148437-8.757813 8.152344-13.386719 18.78125-13.386719 30.746094v1.988281c0 11.960938 4.628906 22.589844 13.382812 30.738281zm206.71875-67.621093c.871094-2.996094 1.753907-6.035157 2.601563-9.117188h36.585937c.851563 3.074219 1.734376 6.105469 2.605469 9.097656 3.652344 12.554688 7.105469 24.414063 7.105469 35.914063 0 11.488281-3.449219 23.332031-7.101562 35.867187-.871094 2.996094-1.757813 6.039063-2.609376 9.121094h-36.589843c-.84375-3.066406-1.726563-6.089844-2.59375-9.066406-3.65625-12.554688-7.109375-24.417969-7.105469-35.917969.003906-11.492187 3.449219-23.347656 7.101562-35.898437zm-190.101562 34.894531c0-3.613281 1.179688-6.324219 3.824219-8.785157 2.644531-2.460937 5.429687-3.445312 9.035156-3.1875l8.921875.644532c44.285156 3.179687 87.089844 6.257812 131.265625 9.425781-.03125.960937-.03125 4.832031 0 5.792969 0 0-98.84375 7.105468-140.191406 10.066406-3.605469.257812-6.386719-.726562-9.03125-3.1875s-3.824219-5.171875-3.824219-8.78125zm0 0"/></svg>