<?xml version="1.0" encoding="iso-8859-1"?>
<!-- Generator: Adobe Illustrator 19.0.0, SVG Export Plug-In . SVG Version: 6.00 Build 0)  -->
<svg version="1.1" id="Capa_1" xmlns="http://www.w3.org/2000/svg" xmlns:xlink="http://www.w3.org/1999/xlink" x="0px" y="0px"
	 viewBox="0 0 512 512" style="enable-background:new 0 0 512 512;" xml:space="preserve">
<g>
	<g>
		<polygon points="482,211 482,241 451,241 451,512 512,512 512,211 		"/>
	</g>
</g>
<g>
	<g>
		<polygon points="30,241 30,211 0,211 0,512 61,512 61,241 		"/>
	</g>
</g>
<g>
	<g>
		<path d="M181,362v150h60V288.509C206.808,295.478,181,325.78,181,362z"/>
	</g>
</g>
<g>
	<g>
		<path d="M271,288.509V512h60V362C331,325.78,305.192,295.478,271,288.509z"/>
	</g>
</g>
<g>
	<g>
		<path d="M331,0v60h-30V0h-90v60h-30V0H91v512h60V362c0-57.897,47.103-105,105-105c57.897,0,105,47.103,105,105v150h60V0H331z
			 M271,188.5h-30v-60h30V188.5z"/>
	</g>
</g>
<g>
</g>
<g>
</g>
<g>
</g>
<g>
</g>
<g>
</g>
<g>
</g>
<g>
</g>
<g>
</g>
<g>
</g>
<g>
</g>
<g>
</g>
<g>
</g>
<g>
</g>
<g>
</g>
<g>
</g>
</svg>
