<svg height="512pt" viewBox="0 0 512 512" width="512pt" xmlns="http://www.w3.org/2000/svg"><path d="m212.933594 299.066406c5.613281 18.460938 22.796875 31.933594 43.066406 31.933594s37.453125-13.472656 43.066406-31.933594c18.460938-5.613281 31.933594-22.796875 31.933594-43.066406 0-19.777344-12.824219-36.613281-30.59375-42.636719-1.289062-13.59375-4.648438-26.246093-9.777344-36.5-8.339844-16.675781-20.636718-25.863281-34.628906-25.863281s-26.289062 9.1875-34.628906 25.863281c-5.128906 10.253907-8.488282 22.90625-9.777344 36.5-17.769531 6.023438-30.59375 22.859375-30.59375 42.636719 0 20.269531 13.472656 37.453125 31.933594 43.066406zm13.066406-58.066406c8.285156 0 15-6.714844 15-15 0-13.546875 2.625-26.5625 7.203125-35.71875 3.832031-7.667969 7.277344-9.28125 7.796875-9.28125s3.964844 1.613281 7.796875 9.28125c4.578125 9.15625 7.203125 22.171875 7.203125 35.71875 0 8.285156 6.714844 15 15 15 8.269531 0 15 6.730469 15 15s-6.730469 15-15 15c-8.285156 0-15 6.714844-15 15 0 8.269531-6.730469 15-15 15s-15-6.730469-15-15c0-8.285156-6.714844-15-15-15-8.269531 0-15-6.730469-15-15s6.730469-15 15-15zm0 0"/><path d="m320.425781 370.691406 8.988281-17.980468c3.707032-7.410157.703126-16.421876-6.707031-20.125-7.410156-3.707032-16.417969-.703126-20.121093 6.707031l-11.5 22.996093c-5.746094-.851562-11.597657-1.289062-17.511719-1.289062h-35.144531c-5.917969 0-11.765626.4375-17.511719 1.289062l-11.5-22.996093c-3.703125-7.410157-12.714844-10.414063-20.125-6.707031-7.410157 3.703124-10.410157 12.714843-6.707031 20.125l8.992187 17.980468c-13.332031 5.800782-25.59375 14.113282-36.183594 24.703125-5.855469 5.855469-5.855469 15.351563 0 21.210938 5.859375 5.859375 15.355469 5.859375 21.214844 0 16.226563-16.226563 38.191406-25.605469 61.816406-25.605469h35.148438c22.78125 0 44.988281 8.777344 61.820312 25.605469 5.855469 5.859375 15.351563 5.859375 21.210938 0 5.859375-5.855469 5.859375-15.351563 0-21.210938-10.589844-10.589843-22.847657-18.902343-36.179688-24.703125zm0 0"/><path d="m504.90625 63.253906c-4.410156-2.734375-9.917969-3-14.570312-.691406l-99.851563 49.511719-4.253906-14.179688c-16.953125-56.503906-69.164063-97.894531-130.230469-97.894531-61.238281 0-113.328125 41.5625-130.230469 97.894531l-4.289062 14.300781-99.800781-49.625c-4.652344-2.3125-10.164063-2.054687-14.578126.679688-4.414062 2.734375-7.101562 7.558594-7.101562 12.75v90c0 48.992188 27.085938 93.898438 70 117.796875l-2.851562 9.503906c-4.078126 13.601563-6.148438 27.699219-6.148438 41.894531 0 67.863282 46.683594 126.457032 110.9375 142.355469 9.789062 20.667969 30.863281 34.449219 54.0625 34.449219 10.574219 0 20.898438-2.855469 30-8.183594 9.101562 5.328125 19.425781 8.183594 30 8.183594 23.199219 0 44.273438-13.78125 54.0625-34.449219 64.324219-15.917969 110.9375-74.558593 110.9375-142.355469 0-14.195312-2.070312-28.292968-6.148438-41.894531l-2.851562-9.503906c42.914062-23.898437 70-68.804687 70-117.796875v-90c0-5.191406-2.683594-10.011719-7.09375-12.746094zm-474.90625 102.746094v-65.789062l82.734375 41.136718-33.847656 112.832032c-30.144531-19.300782-48.886719-52.351563-48.886719-88.179688zm296.269531 283.851562c-5.566406 1.023438-10.082031 5.097657-11.671875 10.527344-3.792968 12.933594-15.285156 21.621094-28.597656 21.621094-9.320312 0-15.996094-4.253906-19.960938-7.824219-2.851562-2.570312-6.445312-3.855469-10.039062-3.855469s-7.1875 1.285157-10.039062 3.855469c-3.964844 3.570313-10.640626 7.824219-19.960938 7.824219-13.3125 0-24.804688-8.6875-28.597656-21.621094-1.589844-5.429687-6.105469-9.503906-11.671875-10.527344-54.890625-10.121093-94.730469-58.335937-94.730469-114.65625 0-11.273437 1.644531-22.46875 4.882812-33.273437l44.105469-147.019531 49.332031 24.527344c7.417969 3.6875 16.421876.667968 20.109376-6.75 3.6875-7.417969.667968-16.421876-6.75-20.113282l-53.945313-26.820312 5.769531-19.234375c13.515625-45.046875 55.253906-76.511719 101.496094-76.511719s87.980469 31.464844 101.492188 76.515625l5.734374 19.101563-53.933593 26.96875c-7.410157 3.703124-10.414063 12.714843-6.707031 20.125 3.695312 7.394531 12.699218 10.417968 20.121093 6.707031l49.269531-24.632813 44.140626 147.136719c3.238281 10.804687 4.882812 22 4.882812 33.277344 0 56.316406-39.839844 104.53125-94.730469 114.652343zm155.730469-283.851562c0 35.828125-18.742188 68.878906-48.886719 88.179688l-33.886719-112.953126 82.773438-41.046874zm0 0"/></svg>