<svg id="Capa_1" enable-background="new 0 0 512.013 512.013" height="512" viewBox="0 0 512.013 512.013" width="512" xmlns="http://www.w3.org/2000/svg"><g><path d="m497.007 0c-56.701.002-113.063 22.003-155.452 64.394l-154.262 154.261c4.29-4.29 5.573-10.742 3.252-16.347-2.322-5.605-7.791-9.26-13.858-9.26h-85.674c-8.284 0-15 6.716-15 15v84.853c0 6.067 3.654 11.537 9.26 13.858 5.604 2.322 12.058 1.039 16.347-3.252 11.721-11.721 23.755 1.781 23.857 1.824l-59.233 86.992c-18.181-1.865-35.811 4.403-48.657 17.25-23.448 23.447-23.453 61.402 0 84.853 23.448 23.449 61.402 23.45 84.852 0 12.827-12.826 19.117-30.452 17.25-48.657l86.992-59.232c.045.1 13.17 11.511 1.824 22.857-9.422 9.422-2.738 25.606 10.606 25.606h84.854c8.284 0 15-6.716 15-15v-84.672c0-6.067-3.654-11.536-9.26-13.858-5.603-2.323-12.058-1.04-16.347 3.251-.003.003-.006.005-.01.009l154.27-154.27c40.096-40.097 64.392-95.505 64.394-155.453.006-8.386-6.863-15.007-15.005-15.007zm-134.24 85.606c26.106-26.106 58.478-43.673 93.724-51.297l-237.379 237.379-21.213-21.213zm-154.261 239.114c0 .001 0 .001 0 0-5.861 5.862-15.35 5.864-21.213 0-5.863-5.863-5.863-15.349 0-21.213 5.861-5.861 15.35-5.863 21.213 0 5.862 5.863 5.863 15.35 0 21.213zm-102.493-55.144v-46.576h47.308c-1.876 13.669 2.442 27.766 12.759 38.081l12.412 12.412c-9.228 4.417-16.786 11.964-21.214 21.213-8.996-8.996-12.278-12.278-12.412-12.412-10.231-10.231-24.572-14.729-38.853-12.718zm-24.787 203.637c-11.723 11.724-30.701 11.726-42.426 0-11.725-11.725-11.725-30.7 0-42.426 11.818-11.818 30.804-11.623 42.426 0 11.699 11.699 11.753 30.674 0 42.426zm27.485-56.263c-3.702-5.122-8.147-9.671-13.648-13.648l52.006-76.378 38.02 38.02zm180.302-11.95h-46.528c1.897-13.914-2.696-27.783-12.767-37.853-.812-.812-8.931-8.931-12.412-12.412 9.228-4.417 16.785-11.964 21.213-21.214l12.413 12.413c10.132 10.132 24.268 14.643 38.081 12.731zm137.394-255.753-164.868 164.867-21.213-21.213 237.378-237.379c-7.624 35.246-25.191 67.618-51.297 93.725z"/></g></svg>